<?xml version="1.0" encoding="utf-8" ?>
<!-- Generator: Assembly 1.0 - http://assemblyapp.co -->
<svg version="1.1" xmlns="http://www.w3.org/2000/svg" xmlns:xlink="http://www.w3.org/1999/xlink" width="300" height="300" viewBox="0 0 300 300">
	<rect x="0" y="0" width="300" height="300" fill="#ffffff" />
	<g id="widget" transform="matrix(1,0,0,1,150,150)">
		<path d="M75.323547,-127.90343 L133.62862,-54.858887 C135.3739,-52.672413 135.01439,-49.468758 132.82793,-47.723495 L95.981728,-18.312399 C93.795242,-16.567116 90.591614,-16.926624 88.846336,-19.1131 L30.541264,-92.157639 C28.79598,-94.344124 29.155502,-97.547768 31.341965,-99.29303 L68.188156,-128.70413 C70.374619,-130.44939 73.578285,-130.08989 75.323547,-127.90343 Z" fill="#ffffff" fill-opacity="1" stroke-width="0.105578" stroke="#000000" stroke-linecap="square" stroke-linejoin="miter" />
		<path d="M91.792847,-81.144699 L68.528473,-90.200951 L72.271873,-65.56282 L95.357826,-56.589149 Z" fill="#ff0707" fill-opacity="1" />
		<path d="M51.229946,-87.432884 L41.856728,-91.08165 L43.364944,-81.154945 L52.666279,-77.539452 Z" fill="#ff0707" fill-opacity="1" />
		<path d="M35.194973,-98.033813 L36.560501,-99.123795 L45.803051,-94.231705 L43.940006,-92.744598 L42.026871,-93.817001 L39.115864,-91.493401 L39.758739,-89.407059 L37.938034,-87.953751 Z M37.57069,-96.360168 L38.519222,-93.30471 L40.350513,-94.766464 Z" fill="#ff0707" fill-opacity="1" />
		<path d="M80.959641,-34.056366 L90.332855,-30.407597 L88.824638,-40.334305 L79.523308,-43.949799 Z" fill="#ff0707" fill-opacity="1" />
		<path d="M96.422112,-34.684135 L95.05658,-33.594154 L85.814026,-38.486248 L87.677071,-39.973354 L89.59021,-38.900948 L92.501221,-41.224548 L91.858345,-43.31089 L93.679047,-44.764198 Z M94.046387,-36.35778 L93.097862,-39.413242 L91.266571,-37.951485 Z" fill="#ff0707" fill-opacity="1" />
		<path d="M112.68963,-59.383579 L122.06284,-55.734814 L120.55463,-65.661522 L111.2533,-69.277016 Z" fill="#ff0707" fill-opacity="1" />
		<path d="M128.72456,-48.782661 L127.35904,-47.69268 L118.11649,-52.584774 L119.97953,-54.07188 L121.89267,-52.999474 L124.80368,-55.323074 L124.1608,-57.409416 L125.98151,-58.862724 Z M126.34885,-50.456306 L125.40032,-53.511768 L123.56903,-52.050011 Z" fill="#ff0707" fill-opacity="1" />
		<path d="M82.959892,-112.7602 L73.58667,-116.40897 L75.094887,-106.48226 L84.396217,-102.86677 Z" fill="#ff0707" fill-opacity="1" />
		<path d="M66.924934,-123.36108 L68.290466,-124.45107 L77.53302,-119.55898 L75.669975,-118.07187 L73.756836,-119.14427 L70.845825,-116.82067 L71.488701,-114.73433 L69.667999,-113.28102 Z M69.300659,-121.68744 L70.249184,-118.63198 L72.080475,-120.09373 Z" fill="#ff0707" fill-opacity="1" />
		<path d="M-57.803932,-122.85596 C-58.469997,-122.93515 -59.147514,-122.9759 -59.83419,-122.9759 L-111.23812,-122.9759 C-111.56609,-122.9759 -111.89198,-122.96661 -112.21552,-122.94827 C-112.58593,-122.96696 -112.95123,-122.9759 -113.31863,-122.9759 C-125.55035,-122.9759 -135.45219,-113.07405 -135.45219,-100.84234 C-135.45219,-88.610611 -125.55035,-78.708778 -113.31863,-78.708778 C-105.59409,-78.708778 -98.798698,-82.657799 -94.839584,-88.648773 L-73.942772,-88.648773 C-69.983673,-82.657799 -63.188293,-78.708778 -55.463722,-78.708778 C-43.232052,-78.708778 -33.330158,-88.610611 -33.330158,-100.84234 C-33.330158,-113.07405 -43.231995,-122.9759 -55.463722,-122.9759 C-56.254292,-122.9759 -57.03513,-122.93454 -57.804192,-122.85385 Z" fill="#ffffff" fill-opacity="1" stroke-width="1.19734" stroke="#000000" stroke-linecap="square" stroke-linejoin="miter" />
		<path d="M-56.662872,-106.18973 L-56.662872,-106.18973 C-58.846378,-106.18973 -60.613968,-107.95732 -60.613968,-110.14082 L-60.613968,-110.14082 C-60.613968,-112.32433 -58.846378,-114.09192 -56.662872,-114.09192 L-56.662872,-114.09192 C-54.47937,-114.09192 -52.711777,-112.32433 -52.711777,-110.14082 L-52.711777,-110.14082 C-52.711777,-107.95732 -54.479382,-106.18973 -56.662872,-106.18973 Z" fill="#ffffff" fill-opacity="1" stroke-width="1.19734" stroke="#000000" stroke-linecap="square" stroke-linejoin="miter" />
		<path d="M-59.455997,-91.540413 L-59.455997,-91.540413 C-60.999966,-93.084381 -60.999966,-95.584137 -59.455997,-97.128105 L-59.455997,-97.128105 C-57.912029,-98.672073 -55.412273,-98.672073 -53.868305,-97.128105 L-53.868305,-97.128105 C-52.324333,-95.584137 -52.324333,-93.084381 -53.868305,-91.540413 L-53.868305,-91.540413 C-55.412273,-89.996445 -57.912033,-89.996452 -59.455997,-91.540413 Z" fill="#ffffff" fill-opacity="1" stroke-width="1.19734" stroke="#000000" stroke-linecap="square" stroke-linejoin="miter" />
		<path d="M-51.553066,-99.444038 L-51.553066,-99.444038 C-53.097034,-100.98801 -53.097034,-103.48776 -51.553066,-105.03173 L-51.553066,-105.03173 C-50.009098,-106.5757 -47.509342,-106.5757 -45.965374,-105.03173 L-45.965374,-105.03173 C-44.421402,-103.48776 -44.421402,-100.98801 -45.965374,-99.444038 L-45.965374,-99.444038 C-47.509342,-97.90007 -50.009102,-97.900078 -51.553066,-99.444038 Z" fill="#ffffff" fill-opacity="1" stroke-width="1.19734" stroke="#000000" stroke-linecap="square" stroke-linejoin="miter" />
		<path d="M-67.359612,-99.444038 L-67.359612,-99.444038 C-68.90358,-100.98801 -68.90358,-103.48776 -67.359612,-105.03173 L-67.359612,-105.03173 C-65.815636,-106.5757 -63.315884,-106.5757 -61.771915,-105.03173 L-61.771915,-105.03173 C-60.227943,-103.48776 -60.227943,-100.98801 -61.771915,-99.444038 L-61.771915,-99.444038 C-63.315884,-97.90007 -65.815643,-97.900078 -67.359612,-99.444038 Z" fill="#ffffff" fill-opacity="1" stroke-width="1.19734" stroke="#000000" stroke-linecap="square" stroke-linejoin="miter" />
		<path d="M-116.05027,-98.132973 L-116.05027,-90.533943 L-112.65897,-87.384888 L-109.26768,-90.533943 L-109.26768,-98.132973 L-102.35054,-98.132965 L-99.201477,-101.47043 L-102.35054,-104.91556 L-109.26768,-104.91556 L-109.26768,-111.15086 L-112.60514,-114.29993 L-116.05027,-111.15086 L-116.05027,-104.91556 L-122.96745,-104.91556 L-126.11652,-101.52425 L-122.96745,-98.132965 L-116.05027,-98.132965 Z" fill="#ffffff" fill-opacity="1" stroke-width="1.19734" stroke="#000000" stroke-linecap="square" stroke-linejoin="miter" />
		<path d="M-84.391129,-130.9427 L-84.391129,-122.97585" fill="#000000" fill-opacity="0" stroke-width="1.19734" stroke="#000000" stroke-linecap="square" stroke-linejoin="miter" />
		<path d="M-71.132179,74.148155 L-62.941875,74.148155 L-62.941875,65.957878 L-62.941875,57.857586 L-62.941875,49.667278 L-71.132179,49.667278 L-71.132179,57.857586 L-79.322487,57.857586 L-79.322487,65.957878 L-79.322487,74.148155 L-79.322487,82.338463 L-71.132179,82.338463 Z" fill="#1d009d" fill-opacity="1" />
		<path d="M-71.132179,82.338463 L-71.132179,90.52877 L-62.941875,90.52877 L-54.751598,90.52877 L-46.561295,90.52877 L-46.561295,82.338463 L-38.370991,82.338463 L-38.370991,74.148155 L-46.561295,74.148155 L-54.751598,74.148155 L-62.941875,74.148155 L-62.941875,82.338463 Z" fill="#1d009d" fill-opacity="1" />
		<path d="M-103.8034,82.338463 L-103.8034,74.148155 L-111.99368,74.148155 L-120.18398,74.148155 L-128.37428,74.148155 L-128.37428,82.338463 L-120.18398,82.338463 L-120.18398,90.52877 L-111.99368,90.52877 L-103.8034,90.52877 L-95.613091,90.52877 L-95.613091,82.338463 Z" fill="#1d009d" fill-opacity="1" />
		<path d="M-95.613091,82.338463 L-87.422783,82.338463 L-87.422783,74.148155 L-87.422783,65.957878 L-87.422783,57.857586 L-95.613091,57.857586 L-95.613091,49.667278 L-103.8034,49.667278 L-103.8034,57.857586 L-103.8034,65.957878 L-103.8034,74.148155 L-95.613091,74.148155 Z" fill="#1d009d" fill-opacity="1" />
		<path d="M-71.132179,106.81937 L-79.322487,106.81937 L-79.322487,115.00967 L-79.322487,123.19995 L-79.322487,131.30025 L-71.132179,131.30025 L-71.132179,139.49055 L-62.941875,139.49055 L-62.941875,131.30025 L-62.941875,123.19995 L-62.941875,115.00967 L-71.132179,115.00967 Z" fill="#1d009d" fill-opacity="1" />
		<path d="M-79.322487,90.52877 L-79.322487,82.338463 L-87.422783,82.338463 L-87.422783,90.52877 L-95.613091,90.52877 L-95.613091,98.629066 L-87.422783,98.629066 L-87.422783,106.81937 L-79.322487,106.81937 L-79.322487,98.629066 L-71.132179,98.629066 L-71.132179,90.52877 Z" fill="#1d009d" fill-opacity="1" />
		<path d="M-95.613091,115.00967 L-103.8034,115.00967 L-103.8034,123.19995 L-103.8034,131.30025 L-103.8034,139.49055 L-95.613091,139.49055 L-95.613091,131.30025 L-87.422783,131.30025 L-87.422783,123.19995 L-87.422783,115.00967 L-87.422783,106.81937 L-95.613091,106.81937 Z" fill="#1d009d" fill-opacity="1" />
		<path d="M-62.941875,106.81937 L-62.941875,115.00967 L-54.751598,115.00967 L-46.561295,115.00967 L-38.370991,115.00967 L-38.370991,106.81937 L-46.561295,106.81937 L-46.561295,98.629066 L-54.751598,98.629066 L-62.941875,98.629066 L-71.132179,98.629066 L-71.132179,106.81937 Z" fill="#1d009d" fill-opacity="1" />
		<path d="M-95.613091,106.81937 L-95.613091,98.629066 L-103.8034,98.629066 L-111.99368,98.629066 L-120.18398,98.629066 L-120.18398,106.81937 L-128.37428,106.81937 L-128.37428,115.00967 L-120.18398,115.00967 L-111.99368,115.00967 L-103.8034,115.00967 L-103.8034,106.81937 Z" fill="#1d009d" fill-opacity="1" />
		<path d="M-116.07718,-39.323826 L-116.07718,-53.409382 C-112.19534,-54.463024 -109.36713,-57.956684 -109.36713,-62.115803 C-109.36713,-67.10675 -113.41534,-71.099503 -118.35083,-71.099503 C-123.28632,-71.099503 -127.33453,-67.10675 -127.33453,-62.115807 C-127.33453,-57.956684 -124.50633,-54.463024 -120.62448,-53.409382 L-120.62448,-39.268372 C-129.55273,-38.159271 -136.37369,-30.617401 -136.37369,-21.411879 L-100.27252,-21.411879 C-100.32797,-30.617401 -107.20439,-38.159271 -116.07718,-39.323826 Z M-118.40629,-64.555824 C-117.07537,-64.555824 -115.96627,-63.446724 -115.96627,-62.115807 C-115.96627,-60.784885 -117.07537,-59.675789 -118.40629,-59.675789 C-119.73721,-59.675789 -120.84631,-60.784885 -120.84631,-62.115807 C-120.84631,-63.446724 -119.73721,-64.555824 -118.40629,-64.555824 Z" fill="#000000" fill-opacity="1" />
		<path d="M-48.666245,-71.09948 L-70.867882,-71.09948 C-72.982323,-71.09948 -74.72673,-69.355064 -74.72673,-67.240631 L-74.72673,-22.097311 C-74.72673,-19.98287 -72.982323,-18.238462 -70.867882,-18.238462 L-48.666245,-18.238462 C-46.551804,-18.238462 -44.807396,-19.98287 -44.807396,-22.097311 L-44.807396,-67.240631 C-44.807396,-69.355064 -46.49894,-71.09948 -48.666245,-71.09948 M-62.304386,-67.82209 L-57.282589,-67.82209 L-57.282589,-66.130531 L-62.304386,-66.130531 L-62.304386,-67.82209 Z M-59.767063,-20.247158 C-61.141453,-20.247158 -62.198673,-21.357244 -62.198673,-22.67877 C-62.198673,-24.05316 -61.088589,-25.11038 -59.767063,-25.11038 C-58.392673,-25.11038 -57.335453,-24.000296 -57.335453,-22.67877 C-57.335453,-21.357244 -58.392673,-20.247158 -59.767063,-20.247158 M-47.661888,-26.696211 L-71.819389,-26.696211 L-71.819389,-62.641716 L-47.661888,-62.641716 L-47.661888,-26.696211 Z" fill="#000000" fill-opacity="1" />
		<path d="M102.81624,-138.09613 L133.35381,-49.76469 C134.2679,-47.120625 132.85828,-44.221378 130.21423,-43.307289 L85.656792,-27.903084 C83.012711,-26.988983 80.113487,-28.398594 79.199394,-31.042658 L48.661823,-119.3741 C47.747726,-122.01818 49.157349,-124.91741 51.801399,-125.8315 L96.358833,-141.2357 C99.002884,-142.1498 101.90215,-140.74019 102.81624,-138.09613 Z" fill="#ffffff" fill-opacity="1" stroke-width="0.105578" stroke="#000202" stroke-linecap="square" stroke-linejoin="miter" />
		<path d="M90.582771,-106.78596 L80.205353,-115.74223 L77.620865,-102.30482 L87.921104,-93.424026 Z" fill="#ff0707" fill-opacity="1" />
		<path d="M67.581276,-107.72808 L59.966682,-114.2999 L58.070274,-104.43998 L65.628242,-97.923561 Z" fill="#ff0707" fill-opacity="1" />
		<path d="M56.98978,-120.04254 L57.61702,-120.25938 Q57.885838,-120.35232 58.128578,-120.47923Q58.371319,-120.60614 58.544918,-120.78797Q58.718513,-120.9698 58.777927,-121.21246Q58.837341,-121.45513 58.726707,-121.77515Q58.585091,-122.18478 58.165737,-122.34075Q57.74638,-122.49672 57.272747,-122.33298Q56.824718,-122.17809 56.614384,-121.83308Q56.404049,-121.48808 56.438354,-121.09868L54.175751,-120.80371 Q54.12579,-121.44566 54.289185,-121.9679Q54.452576,-122.49013 54.786495,-122.89219Q55.120415,-123.29424 55.596806,-123.59509Q56.073196,-123.89592 56.649235,-124.09506Q57.250874,-124.30306 57.858604,-124.34836Q58.466331,-124.39365 58.997185,-124.22607Q59.528034,-124.05849 59.941395,-123.67116Q60.354752,-123.28383 60.580448,-122.63098Q60.841553,-121.87573 60.630592,-121.20091Q60.419636,-120.52608 59.717491,-120.11137L59.73077,-120.07298 Q60.158096,-120.16338 60.538101,-120.0798Q60.918102,-119.99621 61.233078,-119.78982Q61.54805,-119.58344 61.78717,-119.26484Q62.026291,-118.94624 62.163479,-118.54942Q62.398029,-117.87097 62.31263,-117.26822Q62.22723,-116.66547 61.902878,-116.17356Q61.578522,-115.68166 61.040813,-115.30947Q60.503105,-114.93727 59.837463,-114.70715Q58.621384,-114.28674 57.549805,-114.54683Q56.47823,-114.80692 55.776192,-115.92564L57.634983,-117.0985 Q57.905556,-116.64746 58.316536,-116.47427Q58.727516,-116.30107 59.341957,-116.5135Q59.9692,-116.73034 60.157169,-117.16076Q60.345139,-117.59118 60.168121,-118.10322Q60.035358,-118.48724 59.802326,-118.64314Q59.569298,-118.79903 59.277878,-118.81293Q58.986458,-118.82683 58.659798,-118.73539Q58.333138,-118.64396 58.013119,-118.53332L57.565086,-118.37843 Z" fill="#f30005" fill-opacity="1" />
		<path d="M76.142586,-47.088184 L83.741692,-40.498474 L85.661301,-50.353897 L78.11869,-56.888088 Z" fill="#ff0707" fill-opacity="1" />
		<path d="M86.132614,-45.977478 L85.50486,-45.762108 Q85.235825,-45.669804 84.99279,-45.543465Q84.749748,-45.417126 84.575729,-45.235706Q84.401703,-45.054287 84.341713,-44.811764Q84.281731,-44.569237 84.391617,-44.248955Q84.532265,-43.838997 84.951256,-43.682041Q85.370239,-43.525085 85.844254,-43.687714Q86.292648,-43.841549 86.503792,-44.186054Q86.714943,-44.53056 86.681549,-44.92004L88.944839,-45.209686 Q88.993294,-44.567627 88.828674,-44.045776Q88.664047,-43.523922 88.329185,-43.122654Q87.994324,-42.721382 87.517227,-42.421665Q87.040123,-42.121948 86.463623,-41.92416Q85.861496,-41.717579 85.253662,-41.673714Q84.645828,-41.629845 84.115372,-41.798676Q83.584915,-41.967503 83.17247,-42.355812Q82.760025,-42.744118 82.535866,-43.397488Q82.276535,-44.153351 82.489082,-44.827675Q82.70163,-45.502003 83.404747,-45.915062L83.391556,-45.953495 Q82.96402,-45.86409 82.584213,-45.94857Q82.204407,-46.033054 81.889923,-46.240181Q81.575432,-46.447308 81.337067,-46.766464Q81.098694,-47.085621 80.96244,-47.482769Q80.729485,-48.161762 80.816307,-48.764313Q80.903122,-49.366867 81.22863,-49.858002Q81.554146,-50.349136 82.092728,-50.720066Q82.63131,-51.090996 83.297493,-51.31955Q84.514557,-51.737106 85.585518,-51.474491Q86.656479,-51.21188 87.355881,-50.091511L85.494339,-48.923035 Q85.224823,-49.374699 84.814255,-49.548859Q84.403687,-49.723022 83.788742,-49.512047Q83.160995,-49.296673 82.972015,-48.866699Q82.783028,-48.436722 82.958839,-47.924274Q83.090698,-47.53994 83.323364,-47.383495Q83.55603,-47.227051 83.847412,-47.212467Q84.138802,-47.197884 84.465675,-47.288551Q84.792549,-47.379215 85.112831,-47.489098L85.561218,-47.642937 Z" fill="#f30005" fill-opacity="1" />
		<path d="M105.74419,-121.54552 L98.129601,-128.11734 L96.233192,-118.25742 L103.79116,-111.741 Z" fill="#ff0707" fill-opacity="1" />
		<path d="M95.152672,-133.85995 L95.779915,-134.0768 Q96.048729,-134.16974 96.291473,-134.29665Q96.53421,-134.42355 96.707809,-134.60538Q96.881409,-134.78722 96.940819,-135.02988Q97.000237,-135.27255 96.889595,-135.59256Q96.747986,-136.0022 96.328629,-136.15816Q95.909271,-136.31413 95.435638,-136.15039Q94.98761,-135.9955 94.777275,-135.6505Q94.56694,-135.3055 94.60125,-134.91609L92.338646,-134.62112 Q92.288681,-135.26306 92.452072,-135.78531Q92.615471,-136.30754 92.949387,-136.70959Q93.283302,-137.11166 93.759697,-137.41249Q94.236092,-137.71333 94.812126,-137.91248Q95.413765,-138.12047 96.021492,-138.16577Q96.629227,-138.21107 97.16008,-138.04349Q97.690926,-137.87592 98.104286,-137.48857Q98.517647,-137.10124 98.74334,-136.44839Q99.00444,-135.69315 98.793488,-135.01833Q98.582527,-134.34351 97.880386,-133.92879L97.893661,-133.89038 Q98.320992,-133.98079 98.700989,-133.8972Q99.080994,-133.81361 99.395966,-133.60724Q99.710945,-133.40085 99.950066,-133.08224Q100.18919,-132.76366 100.32637,-132.36684Q100.56092,-131.68839 100.47552,-131.08563Q100.39012,-130.48288 100.06577,-129.99098Q99.741409,-129.49907 99.203705,-129.12688Q98.666,-128.75468 98.000351,-128.52457Q96.784271,-128.10414 95.7127,-128.36424Q94.641121,-128.62433 93.939087,-129.74306L95.797874,-130.91591 Q96.068451,-130.46487 96.479431,-130.29169Q96.890411,-130.11848 97.504852,-130.3309Q98.132088,-130.54776 98.320061,-130.97818Q98.508034,-131.4086 98.331017,-131.92062Q98.19825,-132.30466 97.965218,-132.46056Q97.732193,-132.61644 97.440765,-132.63034Q97.149345,-132.64424 96.822693,-132.55281Q96.496033,-132.46136 96.17601,-132.35074L95.727982,-132.19585 Z" fill="#f30005" fill-opacity="1" />
		<path d="M131.45241,-138.02045 L133.4736,-44.581165 C133.5341,-41.784203 131.30438,-39.455902 128.50743,-39.395401 L81.373421,-38.375847 C78.576447,-38.315346 76.248161,-40.545055 76.18766,-43.342014 L74.166481,-136.7813 C74.10598,-139.57828 76.335701,-141.90656 79.132645,-141.96706 L126.26665,-142.98662 C129.0636,-143.04712 131.39192,-140.8174 131.45241,-138.02045 Z" fill="#ffffff" fill-opacity="1" stroke-width="0.105578" stroke="#000000" stroke-linecap="square" stroke-linejoin="miter" />
		<path d="M116.17018,-90.860413 L103.17359,-112.17556 L91.198769,-90.320259 L104.10365,-69.179024 Z" fill="#000000" fill-opacity="1" />
		<path d="M87.744087,-120.47205 L82.507759,-129.05992 L77.683098,-120.25443 L82.882477,-111.73662 Z" fill="#000000" fill-opacity="1" />
		<path d="M81.431137,-138.6282 L83.17794,-138.66599 L87.555962,-129.16913 L85.172737,-129.11758 L84.302795,-131.13087 L80.579002,-131.05032 L79.824013,-129.00188 L77.494957,-128.95151 Z M82.30394,-135.85632 L81.20385,-132.8521 L83.546455,-132.90277 Z" fill="#000202" fill-opacity="1" />
		<path d="M78.986336,-60.005398 L84.222664,-51.417522 L89.047325,-60.223026 L83.847946,-68.740837 Z" fill="#000000" fill-opacity="1" />
		<path d="M85.299271,-41.849258 L83.552475,-41.811474 L79.174454,-51.308331 L81.557686,-51.359879 L82.42762,-49.346588 L86.151413,-49.427135 L86.906403,-51.475578 L89.235466,-51.525955 Z M84.426476,-44.621143 L85.526566,-47.625366 L83.18396,-47.574692 Z" fill="#000202" fill-opacity="1" />
		<path d="M119.5756,-60.883358 L124.81193,-52.295483 L129.6366,-61.100986 L124.43721,-69.618797 Z" fill="#000000" fill-opacity="1" />
		<path d="M125.88853,-42.72723 L124.14173,-42.689445 L119.76371,-52.186302 L122.14694,-52.23785 L123.01688,-50.22456 L126.74067,-50.305107 L127.49566,-52.35355 L129.82472,-52.403927 Z M125.01573,-45.499115 L126.11582,-48.503338 L123.77322,-48.452663 Z" fill="#000202" fill-opacity="1" />
		<path d="M128.33333,-121.35003 L123.09701,-129.9379 L118.27235,-121.1324 L123.47173,-112.61459 Z" fill="#000000" fill-opacity="1" />
		<path d="M122.0204,-139.50618 L123.7672,-139.54396 L128.14522,-130.0471 L125.762,-129.99556 L124.89206,-132.00885 L121.16827,-131.9283 L120.41328,-129.87985 L118.08422,-129.82948 Z M122.8932,-136.7343 L121.79311,-133.73007 L124.13572,-133.78075 Z" fill="#000202" fill-opacity="1" />
		<path d="M92.771622,46.983707 C92.750595,52.010426 88.658585,56.068348 83.631866,56.047321 C78.605141,56.026295 74.547226,51.934284 74.568253,46.907566 C74.589279,41.880844 78.68129,37.822926 83.708008,37.843948 C88.734726,37.864975 92.792648,41.956985 92.771622,46.983707 Z" fill="#e7253a" fill-opacity="1" />
		<path d="M71.911942,46.896454 C71.890915,51.923176 67.798912,55.981094 62.772186,55.960068 C57.745468,55.939041 53.687542,51.847034 53.708569,46.820312 C53.729591,41.793591 57.821609,37.735672 62.848331,37.756699 C67.875053,37.777721 71.932968,41.869732 71.911942,46.896454 Z" fill="#e7253a" fill-opacity="1" />
		<path d="M113.76617,47.071522 C113.74516,52.09824 109.65314,56.156162 104.62642,56.135136 C99.599701,56.114109 95.541779,52.022099 95.562805,46.99538 C95.583832,41.968658 99.675842,37.91074 104.70256,37.931763 C109.72929,37.952789 113.7872,42.0448 113.76617,47.071522 Z" fill="#e7253a" fill-opacity="1" />
		<path d="M92.906502,46.984268 C92.885475,52.01099 88.793465,56.068909 83.766747,56.047882 C78.740021,56.026855 74.682098,51.934849 74.703125,46.908127 C74.724152,41.881405 78.816162,37.823486 83.842888,37.844513 C88.869606,37.865536 92.927528,41.957546 92.906502,46.984268 Z" fill="#e7253a" fill-opacity="1" />
		<path d="M105.02577,65.238647 C105.00475,70.265373 100.91274,74.323288 95.886017,74.302261 C90.859299,74.281242 86.801376,70.189232 86.822403,65.162506 C86.84343,60.135788 90.93544,56.077869 95.962158,56.098892 C100.98888,56.119919 105.0468,60.211929 105.02577,65.238647 Z" fill="#9bd872" fill-opacity="1" />
		<path d="M84.1661,65.151398 C84.145073,70.178116 80.053062,74.236038 75.026344,74.215012 C69.999619,74.193985 65.941696,70.101974 65.962723,65.075256 C65.983749,60.048534 70.07576,55.990616 75.102486,56.011642 C80.129204,56.032665 84.187126,60.124676 84.1661,65.151398 Z" fill="#9bd872" fill-opacity="1" />
		<path d="M126.02036,65.326454 C125.99934,70.35318 121.90733,74.411095 116.8806,74.390068 C111.85388,74.369049 107.79596,70.277039 107.81699,65.250313 C107.83801,60.223595 111.93002,56.165676 116.95674,56.186699 C121.98347,56.207726 126.04138,60.299736 126.02036,65.326454 Z" fill="#9bd872" fill-opacity="1" />
		<path d="M105.16068,65.239204 C105.13966,70.265923 101.04765,74.323845 96.020927,74.302818 C90.994202,74.281792 86.936279,70.189781 86.957306,65.163063 C86.978333,60.136341 91.070343,56.078423 96.097069,56.099449 C101.12379,56.120472 105.18171,60.212482 105.16068,65.239204 Z" fill="#9bd872" fill-opacity="1" />
		<path d="M92.488609,114.63777 C92.467583,119.66449 88.375572,123.72241 83.348854,123.70139 C78.322128,123.68036 74.264214,119.58835 74.28524,114.56163 C74.306267,109.5349 78.398277,105.47699 83.424995,105.49802 C88.451714,105.51904 92.509636,109.61105 92.488609,114.63777 Z" fill="#e7253a" fill-opacity="1" />
		<path d="M71.628929,114.55051 C71.607903,119.57724 67.5159,123.63515 62.489174,123.61414 C57.462456,123.59311 53.40453,119.5011 53.425556,114.47437 C53.446579,109.44765 57.538597,105.38973 62.565319,105.41076 C67.592041,105.43179 71.649956,109.5238 71.628929,114.55051 Z" fill="#e7253a" fill-opacity="1" />
		<path d="M113.48317,114.7256 C113.46215,119.75232 109.37014,123.81024 104.34341,123.78922 C99.316696,123.76819 95.258774,119.67618 95.2798,114.64946 C95.300827,109.62273 99.392838,105.56482 104.41956,105.58585 C109.44628,105.60687 113.5042,109.69888 113.48317,114.7256 Z" fill="#e7253a" fill-opacity="1" />
		<path d="M92.623497,114.63834 C92.60247,119.66507 88.51046,123.72298 83.483742,123.70197 C78.457016,123.68094 74.399094,119.58893 74.42012,114.5622 C74.441147,109.53548 78.533157,105.47756 83.559883,105.49859 C88.586601,105.51962 92.644524,109.61163 92.623497,114.63834 Z" fill="#e7253a" fill-opacity="1" />
		<path d="M104.64745,132.89232 C104.62643,137.91904 100.53442,141.97696 95.50769,141.95593 C90.480972,141.93491 86.42305,137.8429 86.444077,132.81618 C86.465103,127.78945 90.557114,123.73154 95.583832,123.75256 C100.61056,123.77359 104.66847,127.86559 104.64745,132.89232 Z" fill="#9bd872" fill-opacity="1" />
		<path d="M83.787773,132.80507 C83.766747,137.83179 79.674736,141.88971 74.648018,141.86868 C69.621292,141.84766 65.56337,137.75565 65.584396,132.72893 C65.605423,127.7022 69.697433,123.64428 74.724159,123.66531 C79.750877,123.68633 83.8088,127.77834 83.787773,132.80507 Z" fill="#9bd872" fill-opacity="1" />
		<path d="M125.73732,132.98055 C125.7163,138.00726 121.62429,142.06519 116.59756,142.04416 C111.57085,142.02313 107.51292,137.93112 107.53395,132.9044 C107.55498,127.87768 111.64699,123.81976 116.67371,123.84079 C121.70043,123.86182 125.75835,127.95382 125.73732,132.98055 Z" fill="#9bd872" fill-opacity="1" />
		<path d="M104.87765,132.8933 C104.85662,137.92001 100.76461,141.97794 95.737892,141.95691 C90.711166,141.93588 86.653244,137.84387 86.674271,132.81715 C86.695297,127.79043 90.787308,123.73251 95.814034,123.75353 C100.84075,123.77456 104.89867,127.86657 104.87765,132.8933 Z" fill="#9bd872" fill-opacity="1" />
		<path d="M89.994972,102.82684 L98.753464,94.612938 L94.19207,94.593857 L94.261818,77.918602 L85.911728,77.883675 L85.84198,94.558929 L81.305504,94.539955 Z" fill="#000202" fill-opacity="1" />
		<path d="M112.24077,119.35984 C113.02964,118.01649 113.4759,116.45185 113.48286,114.78919 C113.50401,109.73249 109.42637,105.60679 104.35592,105.58559 L104.31758,114.75085 L112.24077,119.35984 Z" fill="#9bd872" fill-opacity="1" />
		<path d="M100.22422,124.8694 C98.880875,124.08053 97.316231,123.63427 95.653572,123.62731 C90.596863,123.60616 86.471161,127.68381 86.449959,132.75426 L95.615234,132.79259 L100.22422,124.8694 Z" fill="#e7253a" fill-opacity="1" />
		<path d="M62.561279,105.41076 C57.53363,105.38973 53.446613,109.4427 53.425583,114.47035 C53.404556,119.498 57.45752,123.58501 62.485168,123.60604 L62.561279,105.41076 Z" fill="#9bd872" fill-opacity="1" />
		<path d="M74.256096,114.50965 C74.234825,119.59451 78.333908,123.72801 83.418755,123.74928 C88.503609,123.77055 92.637123,119.67147 92.658394,114.58662 L74.256096,114.50965 Z" fill="#9bd872" fill-opacity="1" />
		<path d="M65.501213,132.6291 C65.479942,137.71396 69.579025,141.84747 74.663872,141.86874 C79.748726,141.89 83.88224,137.79092 83.903511,132.70607 L65.501213,132.6291 Z" fill="#e7253a" fill-opacity="1" />
		<path d="M108.89597,137.65331 C111.31581,141.88536 116.78652,143.30328 121.12464,140.8228 C125.46276,138.34232 127.01566,132.90837 124.59582,128.67633 L108.89597,137.65331 Z" fill="#e7253a" fill-opacity="1" />
	</g>
</svg>