<?xml version="1.0" encoding="utf-8" ?>
<!-- Generator: Assembly 1.0 - http://assemblyapp.co -->
<svg version="1.1" xmlns="http://www.w3.org/2000/svg" xmlns:xlink="http://www.w3.org/1999/xlink" width="300" height="300" viewBox="0 0 300 300">
	<rect x="0" y="0" width="300" height="300" fill="#ffffff" />
	<g id="widget" transform="matrix(1,0,0,1,150,150)">
		<path d="M32.329975,83.578049 C1.1090037,77.44371 1.2497408,71.866531 30.455465,61.203495" fill="#000000" fill-opacity="0" stroke-width="1.7438" stroke="#000202" stroke-linecap="square" stroke-linejoin="miter" />
		<path d="M24.130053,62.406319 C33.20451,44.298847 39.587177,44.573307 49.895748,62.076271" fill="#000000" fill-opacity="0" stroke-width="1.7438" stroke="#000202" stroke-linecap="square" stroke-linejoin="miter" />
		<path d="M52.179749,56.307396 C63.188148,54.840843 68.502357,58.032261 73.900696,68.723839" fill="#000000" fill-opacity="0" stroke-width="1.76141" stroke="#000202" stroke-linecap="square" stroke-linejoin="miter" />
		<path d="M122.86147,-35.891003 L85.979713,-35.85247 L85.96151,-53.270519 C85.951454,-62.896297 94.193169,-70.697189 104.38419,-70.707832 L104.38419,-70.707832 C114.57522,-70.718483 122.83321,-62.93483 122.84327,-53.309055 L122.86147,-35.891003 Z" fill="#000000" fill-opacity="1" />
		<path d="M63.228424,-74.654945 L63.228424,-74.654945 C49.331707,-74.611359 38.046734,-85.825775 38.003147,-99.722488 L38.003147,-99.722488 C37.959564,-113.61921 49.173977,-124.90418 63.070694,-124.94777 L63.070694,-124.94777 C76.967415,-124.99135 88.252388,-113.77694 88.295975,-99.880219 L88.295975,-99.880219 C88.339554,-85.983505 77.125084,-74.698524 63.228424,-74.654945 Z" fill="#000202" fill-opacity="1" />
		<path d="M62.211586,-109.08652 L62.211586,-109.08652 C60.96806,-109.08262 59.958244,-110.08612 59.954346,-111.32965 L59.954346,-111.32965 C59.950443,-112.57317 60.953945,-113.58298 62.197472,-113.58689 L62.197472,-113.58689 C63.440994,-113.59079 64.450813,-112.58729 64.454712,-111.34377 L64.454712,-111.34377 C64.458611,-110.10023 63.455101,-109.09042 62.211586,-109.08652 Z" fill="#ffffff" fill-opacity="1" />
		<path d="M92.671417,-71.801125 L64.490829,-99.805473 L92.495178,-127.98606 Z" fill="#ffffff" fill-opacity="1" />
		<path d="M86.56955,-96.297943 L79.415833,-96.275505 L79.393402,-103.42922 L86.547119,-103.45166 L86.56955,-96.297943 Z" fill="#000000" fill-opacity="1" />
		<path d="M97.685448,-96.332779 L90.531731,-96.310341 L90.5093,-103.46406 L97.663017,-103.4865 L97.685448,-96.332779 Z" fill="#000000" fill-opacity="1" />
		<path d="M108.83172,-96.367729 L101.678,-96.345291 L101.65557,-103.49901 L108.80929,-103.52145 L108.83172,-96.367729 Z" fill="#000000" fill-opacity="1" />
		<path d="M108.86507,-85.728889 L101.71136,-85.706451 L101.68893,-92.860168 L108.84264,-92.882607 L108.86507,-85.728889 Z" fill="#000000" fill-opacity="1" />
		<path d="M108.89685,-75.590157 L101.74313,-75.567719 L101.7207,-82.721436 L108.87442,-82.743874 L108.89685,-75.590157 Z" fill="#000000" fill-opacity="1" />
		<path d="M102.63531,-27.384287 L102.58633,-42.999294 L85.965324,-42.947159 Z" fill="#000000" fill-opacity="1" />
		<path d="M86.014297,-27.332138 L85.965317,-42.94717 L102.58633,-42.999306 Z" fill="#000000" fill-opacity="1" />
		<path d="M122.84268,-27.44763 L122.7937,-43.062637 L106.17269,-43.010502 Z" fill="#000000" fill-opacity="1" />
		<path d="M106.22166,-27.395521 L106.17268,-43.010578 L122.7937,-43.062714 Z" fill="#000000" fill-opacity="1" />
		<path d="M95.231316,-52.397472 L95.231316,-52.397472 C92.641335,-52.389347 90.538116,-54.479416 90.529999,-57.069393 L90.529999,-57.069393 C90.521873,-59.659367 92.611938,-61.762585 95.20192,-61.77071 L95.20192,-61.77071 C97.791893,-61.778831 99.895111,-59.688766 99.903236,-57.098789 L99.903236,-57.098789 C99.911354,-54.508812 97.821281,-52.405594 95.231316,-52.397472 Z" fill="#ffffff" fill-opacity="1" />
		<path d="M112.0709,-52.450268 L112.0709,-52.450268 C109.48092,-52.442142 107.3777,-54.532211 107.36958,-57.122189 L107.36958,-57.122189 C107.36146,-59.712162 109.45152,-61.81538 112.0415,-61.823505 L112.0415,-61.823505 C114.63148,-61.831627 116.7347,-59.741562 116.74282,-57.151585 L116.74282,-57.151585 C116.75094,-54.561607 114.66087,-52.458389 112.0709,-52.450268 Z" fill="#ffffff" fill-opacity="1" />
		<path d="M112.07019,-52.676521 L112.07019,-52.676521 C110.18848,-52.67062 108.66041,-54.189133 108.65451,-56.070847 L108.65451,-56.070847 C108.64861,-57.95256 110.16711,-59.480625 112.04883,-59.486526 L112.04883,-59.486526 C113.93055,-59.492428 115.45861,-57.973919 115.46452,-56.092205 L115.46452,-56.092205 C115.47041,-54.210491 113.9519,-52.682423 112.07019,-52.676521 Z" fill="#000202" fill-opacity="1" />
		<path d="M95.461571,-52.624462 L95.461571,-52.624462 C93.579857,-52.618561 92.051788,-54.137074 92.045891,-56.018787 L92.045891,-56.018787 C92.039986,-57.900501 93.558495,-59.428566 95.440208,-59.434467 L95.440208,-59.434467 C97.32193,-59.440369 98.849991,-57.92186 98.855896,-56.040146 L98.855896,-56.040146 C98.861794,-54.158432 97.343277,-52.630363 95.461571,-52.624462 Z" fill="#000202" fill-opacity="1" />
		<path d="M-84.20694,72.154037 L-84.080467,65.509468 C-84.078285,65.394905 -84.208748,65.300743 -84.374008,65.2976 L-89.001251,65.209526 C-89.166512,65.206375 -89.300461,65.295509 -89.302643,65.410072 L-89.429108,72.054642 C-89.43129,72.169197 -89.300827,72.263367 -89.135574,72.26651 L-84.508331,72.354584 C-84.343071,72.357727 -84.209557,72.291512 -84.20694,72.154037 Z" fill="#a63131" fill-opacity="1" />
		<path d="M-89.261551,61.514351 L-89.315628,64.355476 C-89.31781,64.470039 -89.187347,64.564201 -89.022095,64.567352 L-84.394852,64.655426 C-84.229591,64.658569 -84.095642,64.569435 -84.09346,64.454872 L-84.039383,61.61375 C-84.037201,61.499187 -84.167664,61.405022 -84.332924,61.401878 L-88.960167,61.313801 C-89.12542,61.310658 -89.258934,61.376877 -89.261551,61.514351 Z" fill="#a63131" fill-opacity="1" />
		<path d="M-83.213089,61.629478 L-83.339561,68.274048 C-83.341743,68.388603 -83.211281,68.482773 -83.046021,68.485916 L-78.418785,68.57399 C-78.253525,68.577133 -78.119576,68.488007 -78.117393,68.373444 L-77.990921,61.728874 C-77.988739,61.614315 -78.119202,61.520149 -78.284462,61.517002 L-82.911697,61.428928 C-83.076958,61.425781 -83.210472,61.492004 -83.213089,61.629478 Z" fill="#a63131" fill-opacity="1" />
		<path d="M-78.191528,72.268532 L-78.137451,69.427406 C-78.135269,69.312843 -78.265739,69.218681 -78.430992,69.215538 L-83.058235,69.127464 C-83.223488,69.124313 -83.357445,69.213448 -83.359619,69.328011 L-83.413696,72.169136 C-83.415878,72.283699 -83.285416,72.377861 -83.120163,72.381012 L-78.49292,72.469086 C-78.294609,72.472855 -78.194145,72.406006 -78.191528,72.268532 Z" fill="#a63131" fill-opacity="1" />
		<path d="M-72.110016,72.384293 L-71.983543,65.739723 C-71.981369,65.62516 -72.111832,65.530991 -72.277084,65.527847 L-76.904327,65.439774 C-77.06958,65.43663 -77.203537,65.525764 -77.205719,65.64032 L-77.332184,72.284889 C-77.334366,72.399452 -77.203903,72.493622 -77.038651,72.496765 L-72.411407,72.584839 C-72.279205,72.587349 -72.112633,72.521759 -72.110016,72.384293 Z" fill="#a63131" fill-opacity="1" />
		<path d="M-77.197678,61.743973 L-77.251755,64.585098 C-77.253937,64.699661 -77.123474,64.793823 -76.958214,64.796974 L-72.330978,64.885048 C-72.165718,64.888191 -72.031769,64.799057 -72.029587,64.684494 L-71.97551,61.843372 C-71.973328,61.728809 -72.10379,61.634644 -72.269051,61.6315 L-76.896286,61.543427 C-77.028496,61.540909 -77.195061,61.606499 -77.197678,61.743973 Z" fill="#a63131" fill-opacity="1" />
		<path d="M-71.116165,61.85973 L-71.242638,68.504295 C-71.24482,68.618858 -71.114357,68.71302 -70.949097,68.716171 L-66.321861,68.804245 C-66.156601,68.807388 -66.022652,68.718254 -66.02047,68.603691 L-65.893997,61.959126 C-65.891823,61.844566 -66.022285,61.750401 -66.187538,61.747253 L-70.814781,61.65918 C-71.013084,61.655403 -71.113548,61.722256 -71.116165,61.85973 Z" fill="#a63131" fill-opacity="1" />
		<path d="M-66.094612,72.498787 L-66.040535,69.657661 C-66.038353,69.543098 -66.168816,69.448929 -66.334076,69.445786 L-70.961311,69.357712 C-71.126572,69.354568 -71.260521,69.443703 -71.262703,69.558258 L-71.31678,72.399384 C-71.318954,72.513947 -71.188499,72.608116 -71.023239,72.611259 L-66.395996,72.699333 C-66.230743,72.702477 -66.097229,72.636261 -66.094612,72.498787 Z" fill="#a63131" fill-opacity="1" />
		<path d="M-90.180824,68.120911 L-90.054352,61.476341 C-90.052177,61.361778 -90.18264,61.267612 -90.3479,61.264469 L-94.975136,61.176395 C-95.140396,61.173248 -95.274345,61.262383 -95.276527,61.376942 L-95.403,68.021507 C-95.405174,68.13607 -95.274719,68.23024 -95.109459,68.233383 L-90.482216,68.321457 C-90.316963,68.3246 -90.183006,68.235466 -90.180824,68.120911 Z" fill="#a63131" fill-opacity="1" />
		<path d="M-90.255402,72.03891 L-90.201324,69.197784 C-90.199142,69.083221 -90.329605,68.989059 -90.494865,68.985916 L-95.122101,68.897842 C-95.287361,68.894691 -95.42131,68.983826 -95.423492,69.098389 L-95.47757,71.939514 C-95.479752,72.054077 -95.349289,72.148239 -95.184029,72.15139 L-90.556793,72.239464 C-90.391533,72.242607 -90.258018,72.176384 -90.255402,72.03891 Z" fill="#a63131" fill-opacity="1" />
		<path d="M-95.640282,96.024963 L-95.513809,89.380394 C-95.511627,89.265831 -95.64209,89.171661 -95.80735,89.168518 L-100.43459,89.080444 C-100.59985,89.077301 -100.7338,89.166435 -100.73598,89.280991 L-100.86245,95.92556 C-100.86463,96.040123 -100.73417,96.134293 -100.56892,96.137436 L-95.941673,96.22551 C-95.776413,96.228653 -95.642899,96.16243 -95.640282,96.024963 Z" fill="#a63131" fill-opacity="1" />
		<path d="M-100.69489,85.385277 L-100.74897,88.226395 C-100.75115,88.340958 -100.62069,88.435127 -100.45544,88.438271 L-95.828194,88.526344 C-95.662933,88.529488 -95.528984,88.440353 -95.526802,88.325798 L-95.472725,85.484673 C-95.470543,85.37011 -95.601006,85.275948 -95.766266,85.272797 L-100.39351,85.184723 C-100.55876,85.18158 -100.69228,85.247803 -100.69489,85.385277 Z" fill="#a63131" fill-opacity="1" />
		<path d="M-94.646431,85.500397 L-94.772903,92.144966 C-94.775085,92.259529 -94.644623,92.353691 -94.479362,92.356842 L-89.852127,92.444916 C-89.686867,92.448059 -89.552917,92.358925 -89.550735,92.244362 L-89.424263,85.5998 C-89.422081,85.485237 -89.552544,85.391068 -89.717804,85.387924 L-94.345039,85.29985 C-94.5103,85.296707 -94.643814,85.362923 -94.646431,85.500397 Z" fill="#a63131" fill-opacity="1" />
		<path d="M-89.62487,96.139458 L-89.570793,93.298332 C-89.568611,93.183769 -89.699081,93.089607 -89.864334,93.086456 L-94.491577,92.998383 C-94.65683,92.995239 -94.790787,93.084373 -94.792961,93.198929 L-94.847038,96.040054 C-94.84922,96.154617 -94.718758,96.248787 -94.553505,96.25193 L-89.926262,96.340004 C-89.727951,96.343781 -89.627487,96.276932 -89.62487,96.139458 Z" fill="#a63131" fill-opacity="1" />
		<path d="M-83.543358,96.255211 L-83.416885,89.610641 C-83.414711,89.496078 -83.545174,89.401917 -83.710426,89.398773 L-88.337669,89.310699 C-88.502922,89.307549 -88.636879,89.396683 -88.639061,89.511246 L-88.765526,96.155815 C-88.767708,96.27037 -88.637245,96.36454 -88.471992,96.367683 L-83.844749,96.455757 C-83.712547,96.458275 -83.545975,96.392685 -83.543358,96.255211 Z" fill="#a63131" fill-opacity="1" />
		<path d="M-88.63102,85.614899 L-88.685097,88.456017 C-88.687279,88.57058 -88.556816,88.664749 -88.391556,88.667892 L-83.76432,88.755966 C-83.59906,88.759109 -83.465111,88.669983 -83.462929,88.55542 L-83.408852,85.714294 C-83.40667,85.599731 -83.537132,85.505569 -83.702393,85.502419 L-88.329628,85.414345 C-88.461838,85.411827 -88.628403,85.477425 -88.63102,85.614899 Z" fill="#a63131" fill-opacity="1" />
		<path d="M-82.549507,85.730652 L-82.67598,92.375221 C-82.678162,92.489777 -82.547699,92.583946 -82.382439,92.58709 L-77.755203,92.675163 C-77.589943,92.678307 -77.455994,92.58918 -77.453812,92.474617 L-77.327339,85.830048 C-77.325165,85.715485 -77.455627,85.621323 -77.62088,85.618179 L-82.248123,85.530098 C-82.446426,85.526329 -82.54689,85.593178 -82.549507,85.730652 Z" fill="#a63131" fill-opacity="1" />
		<path d="M-77.527954,96.369705 L-77.473877,93.52858 C-77.471695,93.414017 -77.602158,93.319855 -77.767418,93.316711 L-82.394653,93.228638 C-82.559914,93.225487 -82.693863,93.314621 -82.696045,93.429184 L-82.750122,96.270309 C-82.752296,96.384872 -82.621841,96.479034 -82.456581,96.482185 L-77.829338,96.570259 C-77.664085,96.573402 -77.530571,96.507179 -77.527954,96.369705 Z" fill="#a63131" fill-opacity="1" />
		<path d="M-101.61417,91.991829 L-101.48769,85.34726 C-101.48552,85.232704 -101.61598,85.138535 -101.78124,85.135391 L-106.40848,85.047318 C-106.57374,85.044174 -106.70769,85.133301 -106.70987,85.247864 L-106.83634,91.892433 C-106.83852,92.006996 -106.70806,92.101158 -106.5428,92.104301 L-101.91556,92.192375 C-101.75031,92.195526 -101.61635,92.106392 -101.61417,91.991829 Z" fill="#a63131" fill-opacity="1" />
		<path d="M-101.68874,95.909836 L-101.63467,93.06871 C-101.63248,92.954147 -101.76295,92.859978 -101.92821,92.856834 L-106.55544,92.768761 C-106.7207,92.765617 -106.85465,92.854752 -106.85683,92.969307 L-106.91091,95.810432 C-106.91309,95.924995 -106.78263,96.019165 -106.61737,96.022308 L-101.99014,96.110382 C-101.82487,96.113525 -101.69136,96.04731 -101.68874,95.909836 Z" fill="#a63131" fill-opacity="1" />
		<path d="M-77.461533,103.71716 L-70.816971,103.84364 C-70.702408,103.84582 -70.613274,103.97977 -70.616417,104.14503 L-70.704491,108.77227 C-70.707642,108.93753 -70.801804,109.06799 -70.916367,109.06581 L-77.560936,108.93934 C-77.675491,108.93716 -77.764626,108.80321 -77.761482,108.63795 L-77.673409,104.0107 C-77.670258,103.84544 -77.599007,103.71455 -77.461533,103.71716 Z" fill="#a63131" fill-opacity="1" />
		<path d="M-67.021904,109.173 L-69.863029,109.11892 C-69.977592,109.11674 -70.066727,108.98279 -70.063576,108.81754 L-69.975502,104.19029 C-69.972359,104.02503 -69.878189,103.89457 -69.763626,103.89675 L-66.922508,103.95083 C-66.807945,103.95301 -66.718811,104.08696 -66.721954,104.25222 L-66.810028,108.87946 C-66.813179,109.04472 -66.88443,109.17561 -67.021904,109.173 Z" fill="#a63131" fill-opacity="1" />
		<path d="M-66.906776,103.12453 L-73.551346,102.99806 C-73.665909,102.99588 -73.755035,102.86193 -73.751892,102.69667 L-73.663818,98.069435 C-73.660675,97.904175 -73.566505,97.773712 -73.451942,97.775894 L-66.807381,97.902367 C-66.692818,97.904549 -66.603683,98.038498 -66.606827,98.203758 L-66.694908,102.83099 C-66.698051,102.99625 -66.769302,103.12715 -66.906776,103.12453 Z" fill="#a63131" fill-opacity="1" />
		<path d="M-77.347038,97.701752 L-74.505913,97.755836 C-74.39135,97.758011 -74.302216,97.891968 -74.305367,98.05722 L-74.39344,102.68446 C-74.396584,102.84972 -74.490746,102.98018 -74.605309,102.978 L-77.446434,102.92393 C-77.560997,102.92175 -77.650131,102.78779 -77.646988,102.62254 L-77.558914,97.995293 C-77.55513,97.796982 -77.484512,97.699142 -77.347038,97.701752 Z" fill="#a63131" fill-opacity="1" />
		<path d="M-77.231285,91.620239 L-70.586716,91.746719 C-70.472153,91.748894 -70.383018,91.882851 -70.386162,92.048103 L-70.474243,96.675346 C-70.477386,96.840599 -70.571548,96.971062 -70.686111,96.968887 L-77.330681,96.842415 C-77.445244,96.840233 -77.534378,96.706276 -77.531227,96.541023 L-77.443153,91.91378 C-77.440636,91.781578 -77.368752,91.61763 -77.231285,91.620239 Z" fill="#a63131" fill-opacity="1" />
		<path d="M-66.792282,97.109123 L-69.633408,97.055046 C-69.747963,97.052864 -69.837097,96.918915 -69.833954,96.753654 L-69.74588,92.126419 C-69.742737,91.961159 -69.648567,91.830696 -69.534004,91.832878 L-66.692879,91.886955 C-66.578323,91.889137 -66.489189,92.023087 -66.492332,92.188347 L-66.580406,96.815582 C-66.582924,96.947792 -66.654808,97.11174 -66.792282,97.109123 Z" fill="#a63131" fill-opacity="1" />
		<path d="M-66.676521,91.027618 L-73.321091,90.901138 C-73.435654,90.898964 -73.524788,90.765007 -73.521637,90.599754 L-73.433563,85.972511 C-73.43042,85.807259 -73.336258,85.676796 -73.221695,85.67897 L-66.577126,85.80545 C-66.462563,85.807625 -66.373428,85.941582 -66.376579,86.106834 L-66.464653,90.734077 C-66.46843,90.932381 -66.539055,91.030228 -66.676521,91.027618 Z" fill="#a63131" fill-opacity="1" />
		<path d="M-77.116783,85.604836 L-74.275658,85.658913 C-74.161095,85.661095 -74.071968,85.795044 -74.075111,85.960304 L-74.163185,90.58754 C-74.166328,90.7528 -74.260498,90.883263 -74.375061,90.881081 L-77.216187,90.827003 C-77.330742,90.824821 -77.419876,90.690872 -77.416733,90.525612 L-77.328659,85.898376 C-77.325508,85.733116 -77.254257,85.602219 -77.116783,85.604836 Z" fill="#a63131" fill-opacity="1" />
		<path d="M-73.658661,109.8402 L-67.014091,109.96667 C-66.899529,109.96886 -66.810394,110.10281 -66.813545,110.26807 L-66.901619,114.8953 C-66.904762,115.06056 -66.998924,115.19102 -67.113487,115.18884 L-73.758057,115.06237 C-73.87262,115.06019 -73.961746,114.92624 -73.958603,114.76098 L-73.870529,110.13374 C-73.867386,109.96848 -73.773216,109.83802 -73.658661,109.8402 Z" fill="#a63131" fill-opacity="1" />
		<path d="M-77.57666,109.76562 L-74.735535,109.8197 C-74.620972,109.82188 -74.531845,109.95584 -74.534988,110.12109 L-74.623062,114.74833 C-74.626205,114.91359 -74.720375,115.04405 -74.834938,115.04187 L-77.676056,114.98779 C-77.790619,114.98562 -77.879753,114.85166 -77.87661,114.6864 L-77.788536,110.05917 C-77.785385,109.89391 -77.714134,109.76301 -77.57666,109.76562 Z" fill="#a63131" fill-opacity="1" />
		<path d="M-57.077148,104.10518 L-50.432579,104.23165 C-50.31802,104.23383 -50.228886,104.36778 -50.232029,104.53304 L-50.320107,109.16029 C-50.32325,109.32555 -50.417416,109.456 -50.531979,109.45383 L-57.176548,109.32735 C-57.291107,109.32517 -57.380241,109.19122 -57.377094,109.02596 L-57.289021,104.39872 C-57.285873,104.23346 -57.214619,104.10256 -57.077148,104.10518 Z" fill="#a63131" fill-opacity="1" />
		<path d="M-46.637516,109.56101 L-49.478642,109.50694 C-49.593201,109.50475 -49.682335,109.3708 -49.679192,109.20555 L-49.591114,104.57831 C-49.587971,104.41305 -49.493801,104.28259 -49.379242,104.28477 L-46.538116,104.33884 C-46.423557,104.34103 -46.334423,104.47498 -46.337566,104.64024 L-46.425644,109.26748 C-46.428787,109.43273 -46.500042,109.56363 -46.637516,109.56101 Z" fill="#a63131" fill-opacity="1" />
		<path d="M-46.522388,103.51255 L-53.166958,103.38608 C-53.281517,103.3839 -53.370651,103.24995 -53.367504,103.08469 L-53.27943,98.457451 C-53.276283,98.292191 -53.182117,98.161728 -53.067558,98.16391 L-46.422989,98.290382 C-46.30843,98.292564 -46.219296,98.426514 -46.222443,98.591774 L-46.310516,103.21901 C-46.313663,103.38427 -46.384914,103.51517 -46.522388,103.51255 Z" fill="#a63131" fill-opacity="1" />
		<path d="M-56.96265,98.089767 L-54.121525,98.143852 C-54.006962,98.146027 -53.917831,98.279984 -53.920975,98.445236 L-54.009048,103.07248 C-54.012196,103.23773 -54.106361,103.36819 -54.220924,103.36602 L-57.062046,103.31194 C-57.176609,103.30976 -57.265743,103.1758 -57.262596,103.01055 L-57.174522,98.383308 C-57.170746,98.184998 -57.100124,98.087158 -56.96265,98.089767 Z" fill="#a63131" fill-opacity="1" />
		<path d="M-56.846893,92.008255 L-50.202328,92.134735 C-50.087765,92.136909 -49.998631,92.270866 -50.001778,92.436119 L-50.089851,97.063362 C-50.092999,97.228615 -50.187164,97.359077 -50.301723,97.356903 L-56.946293,97.230431 C-57.060852,97.228249 -57.149986,97.094292 -57.146843,96.929039 L-57.058765,92.301796 C-57.056248,92.169594 -56.984367,92.005646 -56.846893,92.008255 Z" fill="#a63131" fill-opacity="1" />
		<path d="M-46.40789,97.497139 L-49.249016,97.443062 C-49.363579,97.44088 -49.452713,97.306931 -49.449566,97.14167 L-49.361492,92.514435 C-49.358345,92.349174 -49.264179,92.218712 -49.149616,92.220894 L-46.308495,92.274971 C-46.193932,92.277153 -46.104797,92.411102 -46.107944,92.576363 L-46.196018,97.203598 C-46.198536,97.335808 -46.27042,97.499756 -46.40789,97.497139 Z" fill="#a63131" fill-opacity="1" />
		<path d="M-46.292137,91.415634 L-52.936703,91.289154 C-53.051266,91.28698 -53.140396,91.153023 -53.137253,90.98777 L-53.049179,86.360527 C-53.046032,86.195274 -52.951866,86.064812 -52.837307,86.066986 L-46.192738,86.193466 C-46.078175,86.195641 -45.989044,86.329597 -45.992188,86.49485 L-46.080265,91.122093 C-46.084038,91.320396 -46.154663,91.418243 -46.292137,91.415634 Z" fill="#a63131" fill-opacity="1" />
		<path d="M-56.732395,85.992851 L-53.89127,86.046928 C-53.776711,86.04911 -53.687576,86.18306 -53.690723,86.34832 L-53.778797,90.975555 C-53.781944,91.140816 -53.87611,91.271278 -53.990669,91.269096 L-56.831795,91.215019 C-56.946358,91.212837 -57.035492,91.078888 -57.032345,90.913628 L-56.944271,86.286392 C-56.94112,86.121132 -56.869869,85.990234 -56.732395,85.992851 Z" fill="#a63131" fill-opacity="1" />
		<path d="M-53.274269,110.22822 L-46.629704,110.35469 C-46.515141,110.35687 -46.426006,110.49082 -46.429153,110.65608 L-46.517227,115.28332 C-46.520374,115.44858 -46.61454,115.57904 -46.729099,115.57686 L-53.373669,115.45039 C-53.488228,115.4482 -53.577362,115.31425 -53.574215,115.14899 L-53.486141,110.52176 C-53.482994,110.3565 -53.388832,110.22604 -53.274269,110.22822 Z" fill="#a63131" fill-opacity="1" />
		<path d="M-57.192272,110.15364 L-54.351147,110.20772 C-54.236588,110.2099 -54.147453,110.34386 -54.1506,110.50911 L-54.238674,115.13634 C-54.241821,115.30161 -54.335983,115.43207 -54.450546,115.42989 L-57.291672,115.37581 C-57.406235,115.37363 -57.495365,115.23968 -57.492222,115.07442 L-57.404148,110.44718 C-57.400997,110.28193 -57.329746,110.15102 -57.192272,110.15364 Z" fill="#a63131" fill-opacity="1" />
		<path d="M-56.618782,80.025337 L-49.974213,80.15181 C-49.859653,80.153992 -49.770519,80.287941 -49.773663,80.453201 L-49.86174,85.080437 C-49.864883,85.245697 -49.959049,85.37616 -50.073612,85.373978 L-56.718182,85.247505 C-56.832741,85.245323 -56.921875,85.111374 -56.918728,84.946114 L-56.830654,80.318878 C-56.827507,80.153618 -56.756252,80.02272 -56.618782,80.025337 Z" fill="#a63131" fill-opacity="1" />
		<path d="M-46.17915,85.481171 L-49.020275,85.427086 C-49.134834,85.424911 -49.223969,85.290962 -49.220825,85.125702 L-49.132748,80.498459 C-49.129604,80.333199 -49.035435,80.202736 -48.920876,80.204918 L-46.07975,80.258995 C-45.965191,80.261177 -45.876057,80.395126 -45.8792,80.560387 L-45.967278,85.18763 C-45.970421,85.35289 -46.041676,85.483788 -46.17915,85.481171 Z" fill="#a63131" fill-opacity="1" />
		<path d="M-46.064022,79.432709 L-52.708591,79.306236 C-52.823151,79.304054 -52.912285,79.170097 -52.909138,79.004845 L-52.821064,74.377602 C-52.817917,74.212349 -52.723751,74.081886 -52.609192,74.084068 L-45.964622,74.210541 C-45.850063,74.212715 -45.760929,74.346672 -45.764076,74.511925 L-45.85215,79.139168 C-45.855297,79.304428 -45.926548,79.435326 -46.064022,79.432709 Z" fill="#a63131" fill-opacity="1" />
		<path d="M-56.504284,74.009926 L-53.663158,74.064003 C-53.548595,74.066185 -53.459465,74.200134 -53.462608,74.365395 L-53.550682,78.99263 C-53.553829,79.15789 -53.647995,79.288353 -53.762558,79.286171 L-56.60368,79.232094 C-56.718243,79.229912 -56.807377,79.095963 -56.80423,78.930702 L-56.716156,74.303467 C-56.712379,74.105156 -56.641758,74.007309 -56.504284,74.009926 Z" fill="#a63131" fill-opacity="1" />
		<path d="M-56.388527,67.928413 L-49.743961,68.054886 C-49.629398,68.057068 -49.540264,68.191017 -49.543411,68.356277 L-49.631485,72.983513 C-49.634632,73.148773 -49.728798,73.279236 -49.843357,73.277054 L-56.487926,73.150581 C-56.602486,73.148399 -56.69162,73.01445 -56.688477,72.84919 L-56.600399,68.221954 C-56.597881,68.089745 -56.526001,67.925797 -56.388527,67.928413 Z" fill="#a63131" fill-opacity="1" />
		<path d="M-45.949524,73.417297 L-48.790649,73.36322 C-48.905212,73.361038 -48.994347,73.227089 -48.991199,73.061829 L-48.903126,68.434593 C-48.899979,68.269333 -48.805813,68.13887 -48.69125,68.141052 L-45.850128,68.195129 C-45.735565,68.197311 -45.646431,68.331261 -45.649578,68.496521 L-45.737652,73.123756 C-45.74017,73.255966 -45.812054,73.419914 -45.949524,73.417297 Z" fill="#a63131" fill-opacity="1" />
		<path d="M-45.833771,67.335785 L-52.478336,67.209312 C-52.592899,67.20713 -52.68203,67.073181 -52.678886,66.907921 L-52.590813,62.280685 C-52.587666,62.115425 -52.4935,61.984962 -52.378941,61.987144 L-45.734371,62.113617 C-45.619808,62.115799 -45.530678,62.249748 -45.533821,62.415009 L-45.621899,67.042244 C-45.625671,67.240555 -45.696297,67.338402 -45.833771,67.335785 Z" fill="#a63131" fill-opacity="1" />
		<path d="M-56.274029,61.913006 L-53.432903,61.967083 C-53.318344,61.969265 -53.22921,62.103214 -53.232357,62.268475 L-53.320431,66.895714 C-53.323578,67.060966 -53.417744,67.191429 -53.532303,67.189247 L-56.373428,67.13517 C-56.487991,67.132988 -56.577126,66.999039 -56.573978,66.833778 L-56.485905,62.206543 C-56.482754,62.041286 -56.411503,61.910389 -56.274029,61.913006 Z" fill="#a63131" fill-opacity="1" />
		<path d="M-52.815903,86.148369 L-46.171337,86.274841 C-46.056774,86.277023 -45.96764,86.41098 -45.970787,86.576233 L-46.058861,91.203476 C-46.062008,91.368736 -46.156174,91.499191 -46.270733,91.497017 L-52.915302,91.370544 C-53.029861,91.368362 -53.118996,91.234413 -53.115849,91.069153 L-53.027775,86.44191 C-53.024628,86.276657 -52.930466,86.146194 -52.815903,86.148369 Z" fill="#a63131" fill-opacity="1" />
		<path d="M-56.733906,86.073799 L-53.89278,86.127876 C-53.778221,86.130058 -53.689087,86.264008 -53.692234,86.429268 L-53.780308,91.056503 C-53.783455,91.221764 -53.877617,91.352226 -53.99218,91.350044 L-56.833305,91.295967 C-56.947868,91.293785 -57.036999,91.159836 -57.033855,90.994576 L-56.945782,86.36734 C-56.942631,86.20208 -56.87138,86.071182 -56.733906,86.073799 Z" fill="#a63131" fill-opacity="1" />
		<path d="M-35.564838,38.92482 L-28.920269,39.051292 C-28.805708,39.053474 -28.716576,39.187428 -28.719721,39.352684 L-28.807795,43.979927 C-28.81094,44.145184 -28.905107,44.275646 -29.019669,44.273464 L-35.664238,44.146992 C-35.778797,44.144814 -35.867931,44.01086 -35.864784,43.845604 L-35.776711,39.218365 C-35.773563,39.053104 -35.702309,38.922203 -35.564838,38.92482 Z" fill="#a63131" fill-opacity="1" />
		<path d="M-25.125206,44.380653 L-27.96633,44.326576 C-28.080891,44.324394 -28.170025,44.190449 -28.16688,44.025188 L-28.078804,39.397945 C-28.075659,39.232689 -27.981493,39.102226 -27.866932,39.104408 L-25.025806,39.158485 C-24.911245,39.160664 -24.822113,39.294617 -24.825258,39.459873 L-24.913334,44.087116 C-24.916479,44.252377 -24.987732,44.38327 -25.125206,44.380653 Z" fill="#a63131" fill-opacity="1" />
		<path d="M-25.01008,38.332191 L-31.654646,38.205719 C-31.769207,38.203541 -31.858341,38.069588 -31.855196,37.904331 L-31.76712,33.277092 C-31.763975,33.111835 -31.669809,32.981369 -31.555248,32.983551 L-24.910681,33.110023 C-24.79612,33.112206 -24.706987,33.246155 -24.710133,33.411415 L-24.798206,38.038651 C-24.801352,38.203911 -24.872606,38.334808 -25.01008,38.332191 Z" fill="#a63131" fill-opacity="1" />
		<path d="M-35.45034,32.909412 L-32.609215,32.96349 C-32.494652,32.965672 -32.405521,33.099621 -32.408665,33.264881 L-32.496738,37.892117 C-32.499886,38.057377 -32.594051,38.18784 -32.708614,38.185658 L-35.549736,38.13158 C-35.664299,38.129398 -35.753433,37.995449 -35.750286,37.830189 L-35.662212,33.202953 C-35.658436,33.004642 -35.587814,32.906796 -35.45034,32.909412 Z" fill="#a63131" fill-opacity="1" />
		<path d="M-35.334583,26.8279 L-28.690016,26.954372 C-28.575455,26.956553 -28.486322,27.090504 -28.489468,27.255762 L-28.577541,31.883001 C-28.580688,32.04826 -28.674854,32.178722 -28.789415,32.17654 L-35.433983,32.050068 C-35.548542,32.04789 -35.637676,31.913937 -35.634533,31.748678 L-35.546455,27.121441 C-35.543938,26.989233 -35.472057,26.825283 -35.334583,26.8279 Z" fill="#a63131" fill-opacity="1" />
		<path d="M-24.895582,32.316784 L-27.736706,32.262707 C-27.851267,32.260525 -27.940401,32.126572 -27.937256,31.961313 L-27.849182,27.334076 C-27.846035,27.168818 -27.751869,27.038355 -27.637308,27.040537 L-24.796183,27.094614 C-24.681622,27.096794 -24.592489,27.230745 -24.595634,27.396004 L-24.68371,32.023243 C-24.686226,32.155449 -24.758108,32.319401 -24.895582,32.316784 Z" fill="#a63131" fill-opacity="1" />
		<path d="M-24.779827,26.235271 L-31.424395,26.108799 C-31.538956,26.106619 -31.628088,25.972668 -31.624943,25.807409 L-31.536867,21.180172 C-31.533722,21.014914 -31.439556,20.884451 -31.324995,20.886631 L-24.680428,21.013103 C-24.565866,21.015284 -24.476734,21.149235 -24.479879,21.314493 L-24.567953,25.941732 C-24.571728,26.140041 -24.642353,26.237888 -24.779827,26.235271 Z" fill="#a63131" fill-opacity="1" />
		<path d="M-35.220085,20.81249 L-32.37896,20.86657 C-32.2644,20.86875 -32.175266,21.002701 -32.178413,21.167959 L-32.266487,25.795197 C-32.269634,25.960455 -32.3638,26.090918 -32.478359,26.088737 L-35.319485,26.034658 C-35.434048,26.032478 -35.523182,25.898527 -35.520035,25.733269 L-35.431961,21.106031 C-35.42881,20.940773 -35.357559,20.809874 -35.220085,20.81249 Z" fill="#a63131" fill-opacity="1" />
		<path d="M-31.761959,45.047859 L-25.117392,45.174332 C-25.002831,45.17651 -24.913698,45.310463 -24.916843,45.475723 L-25.004919,50.102959 C-25.008064,50.268219 -25.10223,50.398682 -25.216791,50.3965 L-31.861359,50.270027 C-31.97592,50.267849 -32.065052,50.133896 -32.061905,49.968636 L-31.973831,45.3414 C-31.970686,45.176144 -31.87652,45.045677 -31.761959,45.047859 Z" fill="#a63131" fill-opacity="1" />
		<path d="M-35.679962,44.973282 L-32.838837,45.027363 C-32.724277,45.029541 -32.635143,45.163494 -32.63829,45.328754 L-32.726364,49.95599 C-32.729511,50.12125 -32.823673,50.251713 -32.938236,50.249531 L-35.779362,50.195454 C-35.893925,50.193272 -35.983055,50.059322 -35.979912,49.894062 L-35.891838,45.266823 C-35.888687,45.101566 -35.817436,44.970665 -35.679962,44.973282 Z" fill="#a63131" fill-opacity="1" />
		<path d="M-44.501476,61.61676 L-44.330605,54.559559 C-44.32766,54.437885 -44.465721,54.337143 -44.641239,54.332893 L-49.555836,54.213902 C-49.731358,54.209652 -49.87413,54.303593 -49.877075,54.425266 L-50.047947,61.482468 C-50.050892,61.604141 -49.912834,61.704884 -49.737312,61.709133 L-44.82272,61.828125 C-44.647194,61.832375 -44.505013,61.762768 -44.501476,61.61676 Z" fill="#a63131" fill-opacity="1" />
		<path d="M-49.812012,50.287437 L-49.885075,53.305 C-49.88802,53.426674 -49.749962,53.527416 -49.574444,53.531666 L-44.659847,53.650661 C-44.484325,53.654911 -44.341549,53.560966 -44.338604,53.439293 L-44.265541,50.42173 C-44.262596,50.300056 -44.400658,50.199314 -44.576176,50.195065 L-49.490776,50.076073 C-49.666294,50.071823 -49.808475,50.14143 -49.812012,50.287437 Z" fill="#a63131" fill-opacity="1" />
		<path d="M-43.387936,50.442982 L-43.558807,57.500179 C-43.561756,57.621857 -43.423695,57.722595 -43.248173,57.726845 L-38.33358,57.84584 C-38.158062,57.85009 -38.015285,57.756149 -38.012341,57.634472 L-37.841469,50.577274 C-37.838524,50.455597 -37.976585,50.354858 -38.152103,50.350609 L-43.066696,50.231613 C-43.242218,50.227364 -43.384403,50.29697 -43.387936,50.442982 Z" fill="#a63131" fill-opacity="1" />
		<path d="M-38.112507,61.77145 L-38.039444,58.753891 C-38.036499,58.632214 -38.174561,58.531475 -38.350079,58.527225 L-43.264671,58.40823 C-43.440193,58.40398 -43.582966,58.497921 -43.585911,58.619598 L-43.658974,61.637157 C-43.661922,61.758835 -43.523861,61.859573 -43.348339,61.863827 L-38.433746,61.982819 C-38.223122,61.987915 -38.116043,61.917461 -38.112507,61.77145 Z" fill="#a63131" fill-opacity="1" />
		<path d="M-31.65333,61.927845 L-31.482458,54.870644 C-31.479511,54.74897 -31.617571,54.648228 -31.793093,54.643978 L-36.707684,54.524986 C-36.883205,54.520733 -37.025978,54.614677 -37.028927,54.736351 L-37.199799,61.793552 C-37.202744,61.915226 -37.064682,62.015968 -36.88916,62.020218 L-31.974569,62.13921 C-31.834154,62.142609 -31.656864,62.073853 -31.65333,61.927845 Z" fill="#a63131" fill-opacity="1" />
		<path d="M-36.998966,50.597672 L-37.072029,53.615234 C-37.074974,53.736908 -36.936913,53.83765 -36.761395,53.8419 L-31.846802,53.960896 C-31.67128,53.965145 -31.528507,53.871201 -31.52556,53.749527 L-31.452499,50.731964 C-31.449553,50.610291 -31.587612,50.509548 -31.763134,50.505299 L-36.677727,50.386307 C-36.818142,50.382908 -36.995434,50.451664 -36.998966,50.597672 Z" fill="#a63131" fill-opacity="1" />
		<path d="M-30.539791,50.754066 L-30.710663,57.811264 C-30.713608,57.932938 -30.575548,58.03368 -30.400026,58.03793 L-25.485435,58.156925 C-25.309914,58.161175 -25.167141,58.067234 -25.164194,57.945557 L-24.993322,50.888359 C-24.990377,50.766682 -25.128437,50.665943 -25.303959,50.661694 L-30.21855,50.542698 C-30.429174,50.537598 -30.536255,50.608055 -30.539791,50.754066 Z" fill="#a63131" fill-opacity="1" />
		<path d="M-25.26436,62.082535 L-25.191298,59.064976 C-25.188353,58.943298 -25.326412,58.84256 -25.501932,58.83831 L-30.416525,58.719315 C-30.592045,58.715065 -30.734819,58.809006 -30.737764,58.930683 L-30.810827,61.948242 C-30.813774,62.06992 -30.675713,62.170658 -30.500193,62.174908 L-25.5856,62.293903 C-25.41008,62.298149 -25.267895,62.228546 -25.26436,62.082535 Z" fill="#a63131" fill-opacity="1" />
		<path d="M-50.824795,57.299904 L-50.653923,50.242706 C-50.650978,50.121029 -50.78904,50.02029 -50.964561,50.016037 L-55.87915,49.897045 C-56.054676,49.892796 -56.197449,49.986736 -56.200394,50.10841 L-56.371265,57.165611 C-56.37421,57.287285 -56.236153,57.388027 -56.060627,57.392277 L-51.146038,57.511269 C-50.970516,57.515518 -50.82774,57.421577 -50.824795,57.299904 Z" fill="#a63131" fill-opacity="1" />
		<path d="M-50.925552,61.461216 L-50.852489,58.443657 C-50.849541,58.32198 -50.987602,58.221241 -51.163124,58.216991 L-56.077717,58.097996 C-56.253239,58.093746 -56.396011,58.187687 -56.398956,58.309364 L-56.472019,61.326923 C-56.474964,61.448601 -56.336906,61.549339 -56.161385,61.553593 L-51.246792,61.672585 C-51.071274,61.67683 -50.929085,61.607227 -50.925552,61.461216 Z" fill="#a63131" fill-opacity="1" />
		<path d="M-96.431824,67.199615 C-96.435844,67.410789 -96.569801,67.584274 -96.726524,67.581291 L-98.058678,67.555939 L-98.006821,64.831833 L-97.327682,64.844757 L-97.208199,63.783756 L-97.986595,63.76894 L-97.973732,63.093193 C-97.967834,62.783474 -97.90126,62.580536 -97.572144,62.586803 L-97.154213,62.594757 L-97.136124,61.644489 C-97.208992,61.629017 -97.453987,61.596188 -97.741318,61.590717 C-98.342094,61.579285 -98.764175,62.064159 -98.781456,62.972195 L-98.796333,63.753525 L-99.475464,63.740601 L-99.495697,64.803497 L-98.816559,64.816422 L-98.868416,67.540527 L-101.37077,67.492897 C-101.5275,67.489914 -101.65475,67.311447 -101.65073,67.100281 L-101.53149,60.835545 C-101.52747,60.624374 -101.39351,60.450886 -101.23679,60.453869 L-96.587318,60.542366 C-96.430595,60.545349 -96.303337,60.723812 -96.307358,60.934982 L-96.426605,67.199715 Z" fill="#a63131" fill-opacity="1" />
		<path d="M-97.059937,67.575005 L-101.03221,67.499397 C-101.38129,67.492752 -101.65113,67.118706 -101.64262,66.671455 L-101.5442,61.500713 C-101.53554,61.04562 -101.2458,60.690075 -100.90273,60.696602 L-96.93045,60.772213 C-96.581367,60.778858 -96.311539,61.152901 -96.320045,61.600147 L-96.418617,66.77874 C-96.432999,67.218018 -96.716881,67.581535 -97.059937,67.575005 Z" fill="#a63131" fill-opacity="1" />
		<path d="M-102.00235,64.46402 C-101.95467,64.669777 -102.04219,64.870735 -102.1949,64.90612 L-103.4929,65.206909 L-104.10797,62.552647 L-103.44625,62.399303 L-103.58953,61.341248 L-104.34797,61.517002 L-104.50054,60.858582 C-104.57047,60.556805 -104.55548,60.34375 -104.2348,60.26944 L-103.82758,60.175076 L-104.04214,59.249168 C-104.11658,59.251965 -104.36218,59.279968 -104.64214,59.344845 C-105.22752,59.480495 -105.51839,60.05378 -105.31336,60.938534 L-105.13694,61.699833 L-105.79867,61.853176 L-105.55868,62.888821 L-104.89695,62.735477 L-104.28188,65.38974 L-106.72008,65.95475 C-106.87278,65.990135 -107.03976,65.84816 -107.08745,65.642403 L-108.50197,59.538288 C-108.54964,59.332527 -108.46213,59.131577 -108.30943,59.096188 L-103.77916,58.046383 C-103.62645,58.010994 -103.45946,58.152969 -103.41178,58.358727 L-101.99726,64.462845 Z" fill="#a63131" fill-opacity="1" />
		<path d="M-102.51971,64.9814 L-106.39014,65.878304 C-106.73027,65.957123 -107.0833,65.660309 -107.18428,65.224533 L-108.35178,60.186352 C-108.45454,59.742928 -108.26041,59.327381 -107.92615,59.24992 L-104.05571,58.353016 C-103.71558,58.274197 -103.36256,58.571007 -103.26157,59.006786 L-102.09229,64.052605 C-101.99895,64.482094 -102.18544,64.903938 -102.51971,64.9814 Z" fill="#a63131" fill-opacity="1" />
		<path d="M-109.75201,59.108158 C-109.6255,59.277294 -109.62469,59.496479 -109.75022,59.590363 L-110.81721,60.388374 L-112.44905,58.206512 L-111.9051,57.799683 L-112.46231,56.888901 L-113.08576,57.35519 L-113.49056,56.813953 C-113.67609,56.565887 -113.74816,56.364834 -113.48456,56.167679 L-113.14982,55.917324 L-113.71906,55.156208 C-113.78608,55.188747 -113.9996,55.313278 -114.22974,55.485397 C-114.71092,55.845284 -114.74632,56.487164 -114.20237,57.214451 L-113.73432,57.840256 L-114.27827,58.247082 L-113.64156,59.098404 L-113.0976,58.691578 L-111.46576,60.873436 L-113.47002,62.372444 C-113.59554,62.466328 -113.80556,62.403618 -113.93207,62.234478 L-117.68488,57.216766 C-117.81138,57.047626 -117.81219,56.828445 -117.68666,56.734562 L-113.96268,53.949348 C-113.83716,53.855465 -113.62714,53.918179 -113.50063,54.087315 L-109.74782,59.10503 Z" fill="#a63131" fill-opacity="1" />
		<path d="M-110.01729,59.790127 L-113.19888,62.169674 C-113.47847,62.378784 -113.92113,62.249264 -114.18904,61.891041 L-117.28652,57.74955 C-117.55914,57.385048 -117.54878,56.92651 -117.27401,56.721001 L-114.09242,54.341454 C-113.81283,54.132339 -113.37017,54.261864 -113.10226,54.620083 L-110.00008,58.76786 C-109.74168,59.123394 -109.74252,59.584621 -110.01729,59.790127 Z" fill="#a63131" fill-opacity="1" />
		<path d="M-110.41955,50.987488 C-110.38886,51.196453 -110.49253,51.389572 -110.64762,51.41235 L-111.96587,51.605938 L-112.36175,48.910255 L-111.68969,48.811562 L-111.74593,47.745331 L-112.5162,47.858448 L-112.61441,47.189754 C-112.65942,46.883266 -112.62704,46.672153 -112.30135,46.624329 L-111.88779,46.563591 L-112.02588,45.623238 C-112.1003,45.619934 -112.34737,45.627754 -112.6317,45.66951 C-113.2262,45.756813 -113.563,46.304382 -113.43104,47.202942 L-113.3175,47.97612 L-113.98955,48.074814 L-113.83508,49.126621 L-113.16303,49.027927 L-112.76717,51.72361 L-115.24342,52.087257 C-115.39851,52.110031 -115.55331,51.954872 -115.58401,51.745903 L-116.4944,45.546528 C-116.52509,45.337559 -116.42142,45.14444 -116.26633,45.121666 L-111.66537,44.445999 C-111.51028,44.423222 -111.35547,44.578384 -111.32478,44.787354 L-110.41438,50.986729 Z" fill="#a63131" fill-opacity="1" />
		<path d="M-110.97749,51.460823 L-114.90833,52.038082 C-115.25377,52.08881 -115.58132,51.764114 -115.64632,51.321533 L-116.39774,46.204731 C-116.46387,45.754387 -116.2364,45.356113 -115.89692,45.306259 L-111.96608,44.729004 C-111.62064,44.678272 -111.29308,45.002968 -111.22809,45.445549 L-110.47552,50.570114 C-110.41763,51.005798 -110.63801,51.410969 -110.97749,51.460823 Z" fill="#a63131" fill-opacity="1" />
		<path d="M-105.16522,42.413776 L-109.45532,42.332119 C-109.83233,42.324944 -110.12376,41.920971 -110.11456,41.437939 L-110.00827,35.853477 C-109.99891,35.361977 -109.68599,34.977982 -109.31548,34.985035 L-105.02538,35.066692 C-104.64836,35.073868 -104.35694,35.47784 -104.36613,35.960873 L-104.47259,41.553802 C-104.48812,42.028229 -104.79472,42.420826 -105.16522,42.413776 Z" fill="#a63131" fill-opacity="1" />
		<path d="M-116.73319,35.378262 L-118.77508,31.680874 C-118.95451,31.355949 -118.75357,30.908691 -118.33727,30.678791 L-113.52435,28.020863 C-113.10075,27.78693 -112.61939,27.864697 -112.44305,28.184021 L-110.40117,31.881409 C-110.22173,32.206333 -110.42268,32.653591 -110.83897,32.883492 L-115.65919,35.545452 C-116.07127,35.765713 -116.55685,35.697578 -116.73319,35.378262 Z" fill="#a63131" fill-opacity="1" />
		<path d="M-102.55553,71.305023 C-102.71226,71.30204 -102.84138,71.221802 -102.83961,71.128502 L-102.82451,70.335442 L-100.80276,70.373924 L-100.81046,70.778229 L-100.02274,70.852333 L-100.01392,70.388939 L-99.512398,70.398483 C-99.282532,70.402863 -99.131744,70.443062 -99.135475,70.639 L-99.140205,70.887794 L-98.434952,70.901222 C-98.423668,70.85788 -98.399994,70.712105 -98.396736,70.541054 C-98.389931,70.183403 -98.750946,69.930748 -99.424858,69.917923 L-100.00474,69.906883 L-99.997047,69.502586 L-100.78589,69.487572 L-100.79359,69.891869 L-102.81533,69.853394 L-102.78698,68.363686 C-102.7852,68.270386 -102.65312,68.195122 -102.4964,68.198105 L-97.846901,68.286606 C-97.690178,68.289589 -97.56105,68.369827 -97.562828,68.463127 L-97.615509,71.231041 C-97.617287,71.324348 -97.749374,71.399612 -97.906097,71.396629 L-102.55559,71.308128 Z" fill="#a63131" fill-opacity="1" />
		<path d="M-102.8352,70.896927 L-102.79073,68.56076 C-102.78683,68.355461 -102.51688,68.197716 -102.19324,68.20388 L-98.451668,68.275093 C-98.12236,68.281364 -97.864357,68.452698 -97.868195,68.654457 L-97.912659,70.990623 C-97.916565,71.195923 -98.186516,71.353668 -98.510147,71.347504 L-102.2574,71.276184 C-102.57528,71.266594 -102.83904,71.098686 -102.8352,70.896927 Z" fill="#a63131" fill-opacity="1" />
		<path d="M-108.2088,70.493736 C-108.36161,70.528656 -108.50628,70.481941 -108.52707,70.390968 L-108.70376,69.617699 L-106.73245,69.167259 L-106.64237,69.561478 L-105.86005,69.443336 L-105.96329,68.991508 L-105.47427,68.879768 C-105.25015,68.82856 -105.09412,68.831192 -105.05046,69.02224 L-104.99503,69.264832 L-104.30737,69.107704 C-104.30688,69.06292 -104.31907,68.915741 -104.35718,68.748955 C-104.43686,68.40023 -104.84817,68.242142 -105.50527,68.392288 L-106.07069,68.521484 L-106.16076,68.127266 L-106.92992,68.303017 L-106.83985,68.697235 L-108.81116,69.147667 L-109.14306,67.695137 C-109.16384,67.604164 -109.05382,67.499252 -108.90101,67.46434 L-104.36751,66.428452 C-104.2147,66.393532 -104.07003,66.440247 -104.04924,66.531219 L-103.43256,69.23008 C-103.41177,69.321053 -103.5218,69.425964 -103.67461,69.460876 L-108.20811,70.496765 Z" fill="#a63131" fill-opacity="1" />
		<path d="M-108.57864,70.165215 L-109.09913,67.887337 C-109.14487,67.687157 -108.92095,67.468941 -108.60539,67.396843 L-104.95716,66.563232 C-104.63607,66.489861 -104.34435,66.593887 -104.2994,66.790619 L-103.77892,69.068497 C-103.73317,69.268677 -103.95708,69.486885 -104.27264,69.55899 L-107.92641,70.39386 C-108.23721,70.46125 -108.53369,70.361938 -108.57864,70.165215 Z" fill="#a63131" fill-opacity="1" />
		<path d="M-112.91211,68.006569 C-113.01049,68.128601 -113.15302,68.18148 -113.22567,68.12291 L-113.84317,67.625053 L-112.57397,66.050858 L-112.25917,66.304665 L-111.71795,65.727539 L-112.07876,65.436638 L-111.76392,65.046135 C-111.61962,64.867157 -111.49545,64.772621 -111.3429,64.895622 L-111.14917,65.051811 L-110.70643,64.502678 C-110.73377,64.467209 -110.83447,64.359177 -110.96765,64.251793 C-111.24613,64.027267 -111.66701,64.157768 -112.09007,64.682503 L-112.4541,65.134018 L-112.76891,64.880211 L-113.26412,65.494431 L-112.94932,65.748238 L-114.21851,67.322433 L-115.37844,66.387245 C-115.45109,66.328674 -115.42963,66.178169 -115.33125,66.056145 L-112.41243,62.435898 C-112.31405,62.313866 -112.17152,62.260983 -112.09887,62.319557 L-109.94368,64.057175 C-109.87103,64.115746 -109.89249,64.266243 -109.99087,64.388275 L-112.90968,68.008522 Z" fill="#a63131" fill-opacity="1" />
		<path d="M-113.40598,67.977531 L-115.22498,66.510956 C-115.38484,66.382072 -115.3441,66.072083 -115.14093,65.820099 L-112.79208,62.906784 C-112.58535,62.650375 -112.29186,62.551453 -112.13477,62.678116 L-110.31575,64.144691 C-110.1559,64.273567 -110.19664,64.583565 -110.3998,64.835548 L-112.75222,67.753281 C-112.95457,67.998627 -113.24888,68.104187 -113.40598,67.977531 Z" fill="#a63131" fill-opacity="1" />
		<path d="M-120.10387,64.475151 C-120.2306,64.567413 -120.38197,64.581429 -120.4369,64.505981 L-120.90375,63.864723 L-119.26897,62.674572 L-119.03097,63.001492 L-118.35833,62.584896 L-118.63112,62.210201 L-118.22559,61.914967 C-118.03973,61.779655 -117.89526,61.720646 -117.77991,61.879074 L-117.63345,62.080254 L-117.06318,61.665089 C-117.08036,61.62373 -117.14951,61.493237 -117.25021,61.354923 C-117.46075,61.065727 -117.90108,61.082336 -118.446,61.479053 L-118.91489,61.820415 L-119.15289,61.493496 L-119.79075,61.95787 L-119.55274,62.284786 L-121.18752,63.474941 L-122.06447,62.270374 C-122.11939,62.194935 -122.05956,62.055183 -121.93283,61.962921 L-118.17327,59.225883 C-118.04655,59.133625 -117.89517,59.11961 -117.84025,59.195053 L-116.21085,61.433174 C-116.15592,61.508617 -116.21576,61.648369 -116.34248,61.740631 L-120.10204,64.477669 Z" fill="#a63131" fill-opacity="1" />
		<path d="M-120.57319,64.318764 L-121.94843,62.429756 C-122.06928,62.263748 -121.94936,61.975006 -121.68768,61.784492 L-118.66225,59.581921 C-118.39597,59.388065 -118.08686,59.368839 -117.96809,59.531982 L-116.59285,61.42099 C-116.47199,61.586998 -116.59192,61.87574 -116.8536,62.066254 L-119.88361,64.272171 C-120.14278,64.456474 -120.45441,64.481903 -120.57319,64.318764 Z" fill="#a63131" fill-opacity="1" />
		<path d="M-110.05394,91.939011 L-113.72169,90.411812 C-114.04401,90.277603 -114.15785,89.830658 -113.9859,89.417694 L-111.99793,84.643364 C-111.82296,84.22316 -111.42301,83.998657 -111.10625,84.130554 L-107.4385,85.657753 C-107.11618,85.791962 -107.00233,86.238907 -107.17429,86.651871 L-109.16528,91.433441 C-109.33976,91.836838 -109.73718,92.070908 -110.05394,91.939011 Z" fill="#a63131" fill-opacity="1" />
		<path d="M-114.21107,84.894913 L-118.14075,84.309807 C-118.48609,84.258385 -118.70566,83.852783 -118.63978,83.410339 L-117.87814,78.295044 C-117.8111,77.844833 -117.4781,77.529442 -117.13872,77.579971 L-113.20904,78.165077 C-112.8637,78.216499 -112.64413,78.622101 -112.71001,79.064552 L-113.47281,84.187599 C-113.54348,84.621399 -113.8717,84.945442 -114.21107,84.894913 Z" fill="#a63131" fill-opacity="1" />
		<path d="M-117.85472,76.422546 L-121.68732,77.469406 C-122.02412,77.561409 -122.38843,77.278564 -122.50629,76.847038 L-123.869,71.858124 C-123.98895,71.419029 -123.81113,70.996246 -123.48014,70.90583 L-119.64754,69.858971 C-119.31074,69.766975 -118.94643,70.04982 -118.82856,70.481339 L-117.46378,75.477829 C-117.35379,75.903351 -117.52373,76.332138 -117.85472,76.422546 Z" fill="#a63131" fill-opacity="1" />
		<path d="M-114.17446,95.510239 L-114.13,93.174072 C-114.12609,92.968773 -113.85614,92.811028 -113.53251,92.817192 L-109.79093,92.888405 C-109.46162,92.894676 -109.20362,93.06601 -109.20746,93.267769 L-109.25192,95.603935 C-109.25583,95.809235 -109.52578,95.96698 -109.84941,95.960815 L-113.59666,95.889496 C-113.91454,95.879906 -114.1783,95.711998 -114.17446,95.510239 Z" fill="#a63131" fill-opacity="1" />
		<path d="M-121.74899,87.4953 L-121.39777,85.185257 C-121.36691,84.982254 -121.07857,84.861366 -120.75855,84.910019 L-117.05881,85.472519 C-116.73318,85.522026 -116.49995,85.725792 -116.53028,85.925293 L-116.88149,88.235336 C-116.91235,88.438339 -117.2007,88.559227 -117.52071,88.510574 L-121.22607,87.94722 C-121.53992,87.895927 -121.77932,87.694801 -121.74899,87.4953 Z" fill="#a63131" fill-opacity="1" />
		<path d="M-125.43758,83.689682 L-126.59196,81.658173 C-126.6934,81.479645 -126.54181,81.206192 -126.26038,81.046272 L-123.00672,79.197433 C-122.72036,79.034714 -122.41104,79.050323 -122.31135,79.225777 L-121.15697,81.257286 C-121.05552,81.435814 -121.20712,81.709267 -121.48854,81.869186 L-124.74713,83.720833 C-125.02537,83.874863 -125.33788,83.865135 -125.43758,83.689682 Z" fill="#a63131" fill-opacity="1" />
		<path d="M-133.57002,80.005348 L-134.15662,77.743591 C-134.20818,77.54483 -133.99071,77.32019 -133.67738,77.23893 L-130.05498,76.299431 C-129.73615,76.216743 -129.44153,76.312233 -129.39087,76.507568 L-128.80426,78.769325 C-128.75272,78.968086 -128.97018,79.192726 -129.28351,79.273987 L-132.91141,80.214905 C-133.22012,80.291321 -133.51936,80.200684 -133.57002,80.005348 Z" fill="#a63131" fill-opacity="1" />
		<path d="M-123.44279,53.350765 C-123.57703,53.269817 -123.64873,53.135769 -123.60054,53.055855 L-123.19094,52.376595 L-121.4593,53.420795 L-121.66811,53.767086 L-121.02298,54.225121 L-120.78365,53.82822 L-120.35409,54.087246 C-120.15721,54.205967 -120.04672,54.316181 -120.14792,54.483997 L-120.27642,54.697098 L-119.67236,55.061352 C-119.64092,55.029457 -119.54753,54.915054 -119.45918,54.768547 C-119.27446,54.462212 -119.46078,54.062901 -120.03799,53.714836 L-120.53467,53.415337 L-120.32586,53.06905 L-121.00151,52.661625 L-121.21033,53.007912 L-122.94197,51.963715 L-122.17256,50.687771 C-122.12437,50.607861 -121.97236,50.608719 -121.83812,50.689667 L-117.85579,53.091049 C-117.72155,53.171997 -117.64984,53.306046 -117.69804,53.385956 L-119.12762,55.756706 C-119.1758,55.836617 -119.32783,55.835758 -119.46206,55.754814 L-123.4444,53.353428 Z" fill="#a63131" fill-opacity="1" />
		<path d="M-123.481,52.857548 L-122.27441,50.856602 C-122.16837,50.680759 -121.85571,50.679123 -121.57852,50.846275 L-118.37383,52.778736 C-118.09177,52.948818 -117.95399,53.2262 -118.0582,53.39901 L-119.26479,55.399956 C-119.37083,55.575798 -119.68348,55.577435 -119.96067,55.410286 L-123.17023,53.474892 C-123.44073,53.307644 -123.5852,53.030357 -123.481,52.857548 Z" fill="#a63131" fill-opacity="1" />
		<path d="M-121.4332,46.064846 C-121.43618,46.221569 -121.51642,46.350693 -121.60972,46.348919 L-122.40278,46.333824 L-122.3643,44.312077 L-121.95999,44.319771 L-121.88589,43.532051 L-122.34928,43.523228 L-122.33973,43.021709 C-122.33536,42.791847 -122.29515,42.641056 -122.09922,42.644787 L-121.85042,42.649521 L-121.837,41.944263 C-121.88034,41.932983 -122.02611,41.909306 -122.19716,41.906052 C-122.55482,41.899242 -122.80746,42.260258 -122.8203,42.934174 L-122.83133,43.514053 L-123.23563,43.506359 L-123.25065,44.295204 L-122.84634,44.302898 L-122.88483,46.324646 L-124.37453,46.296291 C-124.46783,46.294518 -124.54309,46.162434 -124.54011,46.005707 L-124.45161,41.356213 C-124.44863,41.19949 -124.36839,41.070366 -124.27509,41.07214 L-121.50717,41.124825 C-121.41387,41.126602 -121.33861,41.258686 -121.34159,41.415409 L-121.43009,46.064903 Z" fill="#a63131" fill-opacity="1" />
		<path d="M-121.84126,46.344524 L-124.17743,46.30006 C-124.38273,46.29615 -124.54047,46.026203 -124.53431,45.702572 L-124.4631,41.960991 C-124.45683,41.631683 -124.28549,41.37368 -124.08373,41.377522 L-121.74757,41.421986 C-121.54227,41.425896 -121.38452,41.695843 -121.39069,42.019474 L-121.46201,45.766731 C-121.4716,46.08461 -121.6395,46.348366 -121.84126,46.344524 Z" fill="#a63131" fill-opacity="1" />
		<path d="M-123.31295,65.313011 L-125.63256,68.538559 C-125.8364,68.822014 -126.29752,68.831482 -126.66069,68.570312 L-130.85941,65.550858 C-131.22896,65.28511 -131.35684,64.84465 -131.15652,64.566078 L-128.83691,61.340534 C-128.63307,61.057076 -128.17195,61.047611 -127.80878,61.308781 L-123.60369,64.332809 C-123.25041,64.594284 -123.11263,65.034447 -123.31295,65.313011 Z" fill="#a63131" fill-opacity="1" />
		<path d="M-125.76949,54.844131 L-128.81238,57.869431 C-129.07979,58.135292 -129.57272,58.063652 -129.91335,57.721046 L-133.85141,53.76009 C-134.19801,53.411472 -134.25621,52.919552 -133.99341,52.658276 L-130.95052,49.632973 C-130.68311,49.367111 -130.19017,49.438751 -129.84955,49.781357 L-125.90551,53.748325 C-125.57548,54.089497 -125.50669,54.582855 -125.76949,54.844131 Z" fill="#a63131" fill-opacity="1" />
		<path d="M-131.00703,75.267334 L-131.60526,73.008621 C-131.65782,72.810127 -131.44151,72.584373 -131.12862,72.501503 L-127.51108,71.543411 C-127.19269,71.459091 -126.89758,71.553055 -126.84591,71.748131 L-126.2477,74.006844 C-126.19513,74.205338 -126.41144,74.431091 -126.72434,74.513962 L-130.34737,75.473503 C-130.65567,75.551498 -130.95538,75.462402 -131.00703,75.267334 Z" fill="#a63131" fill-opacity="1" />
		<path d="M-134.54556,69.558815 L-136.20258,71.206238 C-136.34819,71.351006 -136.65184,71.276558 -136.88007,71.047012 L-139.51855,68.393173 C-139.75078,68.159607 -139.81696,67.857048 -139.67386,67.714767 L-138.01685,66.067345 C-137.87123,65.922569 -137.56757,65.997025 -137.33936,66.22657 L-134.69685,68.88443 C-134.47516,69.112442 -134.40247,69.416534 -134.54556,69.558815 Z" fill="#a63131" fill-opacity="1" />
		<path d="M-123.67889,40.272125 L-126.01506,40.227661 C-126.22036,40.223751 -126.37811,39.953804 -126.37194,39.630173 L-126.30073,35.888592 C-126.29446,35.559284 -126.12312,35.301281 -125.92136,35.305122 L-123.5852,35.349586 C-123.3799,35.353497 -123.22215,35.623444 -123.22832,35.947075 L-123.29964,39.694332 C-123.30923,40.012211 -123.47713,40.275967 -123.67889,40.272125 Z" fill="#a63131" fill-opacity="1" />
		<path d="M-118.17757,42.869217 L-120.17852,41.662628 C-120.35436,41.556595 -120.356,41.243942 -120.18885,40.966747 L-118.25639,37.762051 C-118.0863,37.479996 -117.80892,37.342224 -117.63611,37.44643 L-115.63516,38.653019 C-115.45932,38.759056 -115.45769,39.071709 -115.62484,39.3489 L-117.56023,42.55846 C-117.72748,42.828957 -118.00477,42.973423 -118.17757,42.869217 Z" fill="#a63131" fill-opacity="1" />
		<path d="M138.72643,41.056862 L109.312,41.087593 C106.51064,41.090519 104.20192,43.404068 104.20485,46.205433 L104.26734,106.01473 C104.27026,108.81611 106.5838,111.12482 109.38518,111.12189 L138.79959,111.09116 C141.60097,111.08823 143.90967,108.7747 143.90675,105.97332 L143.84425,46.164017 C143.84132,43.362656 141.59782,41.05386 138.72643,41.056862 M120.66211,45.417877 L127.31537,45.410923 L127.31771,47.652031 L120.66445,47.658981 L120.66211,45.417877 Z M124.08961,108.44525 C122.26871,108.44715 120.86649,106.97789 120.86465,105.22704 C120.86275,103.40614 122.33202,102.00391 124.08287,102.00208 C125.90377,102.00018 127.30599,103.46944 127.30782,105.2203 C127.30965,106.97116 125.9105,108.44335 124.08961,108.44525 M140.11853,99.8843 L108.11284,99.91774 L108.06308,52.294403 L140.06877,52.260963 L140.11853,99.8843 Z" fill="#000000" fill-opacity="1" />
		<path d="M-90.768562,-61.550194 C-96.355782,-61.688301 -100.77316,-66.329605 -100.63505,-71.916824 C-100.49694,-77.504044 -95.855644,-81.921417 -90.268425,-81.78331 C-84.681206,-81.645195 -80.263824,-77.003899 -80.401939,-71.416679 C-80.540047,-65.82946 -85.181343,-61.412083 -90.768562,-61.550194 Z" fill="#000000" fill-opacity="1" />
		<path d="M-90.195442,-84.735802 C-95.782654,-84.873909 -100.20004,-89.515213 -100.06192,-95.102432 C-99.923813,-100.68965 -95.282516,-105.10703 -89.695297,-104.96893 C-84.108078,-104.83081 -79.690697,-100.18951 -79.828812,-94.602287 C-79.966919,-89.015068 -84.608223,-84.597687 -90.195442,-84.735802 Z" fill="#000000" fill-opacity="1" />
		<path d="M-91.339622,-38.447014 C-96.926842,-38.585121 -101.34422,-43.226421 -101.20611,-48.813641 C-101.068,-54.40086 -96.426704,-58.818237 -90.839485,-58.680126 C-85.252266,-58.542015 -80.834885,-53.900715 -80.973,-48.313496 C-81.111107,-42.72628 -85.752403,-38.308903 -91.339622,-38.447014 Z" fill="#000000" fill-opacity="1" />
		<path d="M-90.766502,-61.632622 C-96.353714,-61.770733 -100.7711,-66.412033 -100.63298,-71.999252 C-100.49487,-77.586472 -95.853577,-82.003853 -90.266357,-81.865746 C-84.679138,-81.727631 -80.261757,-77.086327 -80.399872,-71.499107 C-80.537979,-65.911888 -85.179283,-61.494511 -90.766502,-61.632622 Z" fill="#000000" fill-opacity="1" />
		<path d="M-50.338303,-48.622978 C-55.925522,-48.761086 -60.342899,-53.402386 -60.204788,-58.989605 C-60.066677,-64.576828 -55.425377,-68.994202 -49.838158,-68.856094 C-44.250938,-68.717979 -39.833561,-64.076683 -39.971672,-58.48946 C-40.109783,-52.902245 -44.751083,-48.484867 -50.338303,-48.622978 Z" fill="#000000" fill-opacity="1" />
		<path d="M-49.765175,-71.808586 C-55.352394,-71.946693 -59.769772,-76.587997 -59.63166,-82.175217 C-59.493549,-87.762436 -54.852249,-92.179817 -49.26503,-92.04171 C-43.677811,-91.903595 -39.260433,-87.262291 -39.398544,-81.675072 C-39.536655,-76.087852 -44.177956,-71.670471 -49.765175,-71.808586 Z" fill="#000000" fill-opacity="1" />
		<path d="M-18.149942,-62.803822 L-18.149942,-62.803822 C-22.004755,-66.854042 -21.846571,-73.253334 -17.796352,-77.108147 L-17.796352,-77.108147 C-13.746133,-80.962967 -7.346838,-80.804779 -3.4920239,-76.754562 L-3.4920239,-76.754562 C0.36279029,-72.704338 0.20460564,-66.305046 -3.8456137,-62.450233 L-3.8456137,-62.450233 C-7.895833,-58.595417 -14.295145,-58.75362 -18.149942,-62.803822 Z" fill="#000000" fill-opacity="1" />
		<path d="M-90.772354,-71.345078 L-130.19081,-72.319473" fill="#000000" fill-opacity="0" stroke-width="0.556478" stroke="#000000" stroke-linecap="square" stroke-linejoin="miter" />
		<path d="M-100.36919,-96.630325 L-132.14532,-97.415802" fill="#000000" fill-opacity="0" stroke-width="0.556478" stroke="#000000" stroke-linecap="square" stroke-linejoin="miter" />
		<path d="M-101.31469,-45.540489 L-133.09084,-46.32597" fill="#000000" fill-opacity="0" stroke-width="0.556478" stroke="#000000" stroke-linecap="square" stroke-linejoin="miter" />
		<path d="M-122.53563,-72.114998 L-134.35764,-72.407227" fill="#000000" fill-opacity="0" stroke-width="0.556478" stroke="#000000" stroke-linecap="square" stroke-linejoin="miter" />
		<path d="M-50.573582,-83.216476 L-87.899429,-70.506409" fill="#000000" fill-opacity="0" stroke-width="0.556478" stroke="#000000" stroke-linecap="square" stroke-linejoin="miter" />
		<path d="M-49.238529,-60.035416 L-86.564377,-47.325348" fill="#000000" fill-opacity="0" stroke-width="0.556478" stroke="#000000" stroke-linecap="square" stroke-linejoin="miter" />
		<path d="M-85.13604,-95.405319 L-48.514214,-80.790031" fill="#000000" fill-opacity="0" stroke-width="0.556478" stroke="#000000" stroke-linecap="square" stroke-linejoin="miter" />
		<path d="M-50.738007,-83.665459 L-83.331963,-52.708851" fill="#000000" fill-opacity="0" stroke-width="0.556478" stroke="#000000" stroke-linecap="square" stroke-linejoin="miter" />
		<path d="M-84.709534,-92.954964 L-53.752926,-60.361012" fill="#000000" fill-opacity="0" stroke-width="0.556478" stroke="#000000" stroke-linecap="square" stroke-linejoin="miter" />
		<path d="M-51.378372,-57.230854 L-87.689087,-72.602814" fill="#000000" fill-opacity="0" stroke-width="0.556478" stroke="#000000" stroke-linecap="square" stroke-linejoin="miter" />
		<path d="M-48.63916,-83.298409 L-11.98687,-68.759697" fill="#000000" fill-opacity="0" stroke-width="0.556478" stroke="#000000" stroke-linecap="square" stroke-linejoin="miter" />
		<path d="M-49.119225,-57.304756 L-12.093367,-70.863907" fill="#000000" fill-opacity="0" stroke-width="0.556478" stroke="#000000" stroke-linecap="square" stroke-linejoin="miter" />
		<path d="M-109.0631,-93.235168 L-97.513329,-96.5261 L-108.8778,-100.42744 Z" fill="#000000" fill-opacity="1" />
		<path d="M-109.70397,-68.214645 L-98.157639,-71.517639 L-109.52618,-75.407112 Z" fill="#000000" fill-opacity="1" />
		<path d="M-109.33622,-42.128044 L-97.789886,-45.431038 L-109.15843,-49.320507 Z" fill="#000000" fill-opacity="1" />
		<path d="M13.674381,-69.300835 L10.2043,-71.288895 L10.175164,-70.110207 L-5.3189783,-70.493202 L-5.3584533,-68.896255 L10.135689,-68.51326 L10.106553,-67.334564 Z" fill="#000000" fill-opacity="1" />
		<path d="M79.393402,53.473125 C65.455803,53.458538 54.165508,60.625389 54.156227,69.493172 C54.146946,78.360954 65.422218,85.55143 79.35981,85.566017 L79.393402,53.473125 Z" fill="#000202" fill-opacity="1" />
		<path d="M41.920025,63.790081 C27.98243,63.775494 16.692135,70.942345 16.682856,79.810127 C16.673574,88.67791 27.948841,95.868385 41.886436,95.882973 L41.920025,63.790081 Z" fill="#000202" fill-opacity="1" />
		<path d="M27.682417,83.020157 L27.682417,83.020157 C29.896523,91.748329 37.623131,97.373581 44.871941,95.534752 L84.308098,85.530846 C91.556892,83.692017 95.667816,75.063904 93.453705,66.335732 L93.453705,66.335732 C91.239601,57.607555 83.512985,51.982311 76.264191,53.82114 L36.828033,63.825043 C29.579222,65.663872 25.468311,74.291985 27.682417,83.020157 Z" fill="#4d4d4d" fill-opacity="1" />
		<path d="M30.840456,62.013397 L30.441183,60.268158 L51.520817,55.445606 L51.92009,57.190845 L30.840456,62.013397 Z" fill="#000202" fill-opacity="1" />
		<path d="M56.41254,80.083099 L56.447102,80.075058 L58.044037,68.773109 L59.392025,68.459488 L57.468933,81.804794 L56.224636,82.094292 L48.729103,70.940308 L50.111652,70.618645 Z" fill="#ffffff" fill-opacity="1" />
		<path d="M63.502037,73.205292 L65.714119,72.690636 Q66.543648,72.497635 67.082382,72.190125Q67.621117,71.882607 67.900414,71.517036Q68.17971,71.151474 68.244781,70.72644Q68.309853,70.301414 68.205307,69.852089Q68.10479,69.420036 67.858788,69.067383Q67.612785,68.714729 67.198792,68.50135Q66.784798,68.287971 66.167656,68.258492Q65.550522,68.229012 64.720985,68.422005L62.508907,68.936668 Z M65.09024,80.031639 L63.845947,80.321129 L60.999241,68.085556 L64.766693,67.20903 Q66.633133,66.774788 67.902229,67.335739Q69.171326,67.896683 69.553299,69.538467Q69.85083,70.817322 69.250275,71.877029Q68.649719,72.936729 67.161079,73.42881L72.03756,78.415283 L70.516754,78.769112 L65.841232,73.863403 L63.76741,74.345894 Z" fill="#ffffff" fill-opacity="1" />
		<path d="M113.83179,77.372925 L120.98064,77.380409 L117.42693,68.714233 Z M111.38061,83.238472 L109.42458,83.236427 L116.61396,66.757347 L118.24399,66.759048 L125.39887,83.253143 L123.44283,83.251099 L121.63105,78.917976 L113.20146,78.909149 Z" fill="#000000" fill-opacity="1" />
		<path d="M129.32057,74.059212 L132.30119,74.062332 Q133.41893,74.063507 134.19926,73.831459Q134.97958,73.599411 135.44571,73.215683Q135.91183,72.831947 136.12196,72.308228Q136.33209,71.784508 136.33272,71.17907Q136.33333,70.596916 136.1243,70.072754Q135.91527,69.548599 135.44997,69.152245Q134.98466,68.755898 134.2048,68.533859Q133.42494,68.311829 132.30722,68.310654L129.32658,68.307533 Z M129.31094,83.25724 L127.63434,83.255486 L127.6516,66.768898 L132.72797,66.774208 Q135.24287,66.77684 136.69711,67.87281Q138.15135,68.968788 138.14903,71.180969Q138.14723,72.904144 137.0632,74.078964Q135.97916,75.253777 133.92978,75.43792L138.67197,83.267036 L136.62279,83.264893 L132.1133,75.599022 L129.31895,75.5961 Z" fill="#000000" fill-opacity="1" />
	</g>
</svg>